<?xml version="1.0" encoding="utf-8"?>
<!-- Generator: Adobe Illustrator 22.1.0, SVG Export Plug-In . SVG Version: 6.00 Build 0)  -->
<svg version="1.1" id="Layer_1" xmlns="http://www.w3.org/2000/svg" xmlns:xlink="http://www.w3.org/1999/xlink" x="0px" y="0px"
	 viewBox="0 0 56.7 56.7" style="enable-background:new 0 0 56.7 56.7;" xml:space="preserve">
<style type="text/css">
	.st0{opacity:0.1;fill:#6C63FF;enable-background:new    ;}
	.st1{fill:#FFFFFF;}
	.st2{fill:#D0D0DB;}
	.st3{fill:url(#SVGID_1_);}
	.st4{fill:#95B6F0;}
	.st5{opacity:5.000000e-02;enable-background:new    ;}
	.st6{fill:#5F546F;}
	.st7{fill:#CCCCD8;}
	.st8{opacity:0.1;enable-background:new    ;}
	.st9{opacity:0.1;fill:#FFFFFF;enable-background:new    ;}
	.st10{fill:#C27099;}
	.st11{fill:#4C4981;}
	.st12{fill:#63345E;}
	.st13{opacity:0.1;}
	.st14{fill:url(#SVGID_2_);}
	.st15{fill:#AEA4B2;}
	.st16{fill:#FFC4D0;}
	.st17{fill:#575989;}
	.st18{fill:#AE757A;}
	.st19{fill:none;}
	.st20{fill:#6C63FF;}
	.st21{fill:#D4DFEC;}
	.st22{fill:#444053;}
</style>
<g>
	<path class="st0" d="M56,20.4c0,0.1,0,0.1,0,0.2c-0.1,0.6-0.2,1.2-0.4,1.8c-0.8,1.9-2.4,3.3-4.1,4.5l-0.1,0.1
		c-0.3,0.2-0.6,0.4-0.9,0.6l0,0l0,0l-0.1,0c0,0-0.1,0.1-0.1,0.1l-0.1,0l-0.3,0.2l-0.3,0.2l0,0c-0.2,0.1-0.4,0.2-0.6,0.3
		c-0.6,0.4-1.3,0.8-1.9,1.2l-0.1,0.1c0,0-0.1,0.1-0.1,0.1c-0.2,0.2-0.5,0.3-0.7,0.5c0,0-0.1,0.1-0.1,0.1c-0.4,0.4-0.9,0.8-1.2,1.2
		c-0.3,0.4-0.5,0.8-0.5,1.3c-0.1,0.8,0.2,1.5,0.5,2.2c0.2,0.5,0.5,0.9,0.8,1.4c0.1,0.1,0.2,0.3,0.2,0.4c0.1,0.3,0.3,0.5,0.4,0.8
		c0.2,0.6,0.3,1.2,0,1.8c-0.3,0.7-0.8,1.1-1.4,1.4c-0.3,0.2-0.7,0.3-1,0.5c-0.5,0.2-1,0.5-1.5,0.8c0,0-0.1,0-0.1,0.1
		c-0.1,0-0.1,0.1-0.2,0.1l0,0c-0.1,0.1-0.2,0.1-0.3,0.2c-0.1,0-0.1,0.1-0.2,0.1c0,0-0.1,0.1-0.1,0.1c-0.1,0.1-0.1,0.2-0.2,0.2
		l-0.1,0.1c-0.1,0.1-0.1,0.1-0.2,0.2c-0.1,0.1-0.1,0.2-0.2,0.2c-0.1,0.1-0.2,0.2-0.3,0.4c0,0-0.1,0.1-0.1,0.1
		c-0.2,0.2-0.3,0.4-0.5,0.6l0,0c-0.4,0.4-0.8,0.8-1.4,1c-1.3,0.5-2.6-0.2-3.9-0.9l0,0l0,0l0,0l0,0l-0.1-0.1l-0.1,0
		c-0.1-0.1-0.3-0.1-0.4-0.2l0,0c-0.2-0.1-0.4-0.2-0.5-0.3c-0.1-0.1-0.2-0.1-0.3-0.2c-0.4-0.2-0.7-0.3-1.1-0.4
		c-0.5-0.2-1-0.3-1.5-0.4c-0.2,0-0.4-0.1-0.6-0.1c-0.1,0-0.3,0-0.4,0c-1.1-0.1-2.2,0.1-3.3,0.4c-0.1,0-0.3,0.1-0.4,0.1
		c0,0-0.1,0-0.1,0c-0.1,0-0.3,0.1-0.4,0.2l0,0l0,0c0,0,0,0,0,0c-0.7,0.3-1.3,0.7-2,0.9c-0.1,0-0.1,0.1-0.2,0.1
		c-0.4,0.2-0.9,0.3-1.3,0.4c-0.5,0.1-0.9,0-1.4,0c-0.4-0.1-0.8-0.2-1.2-0.3h0l0,0l0,0c0,0-0.1,0-0.1,0l-0.1,0l-0.1,0
		c-0.9-0.3-1.9-0.6-2.9-0.7c0,0-0.1,0-0.1,0c-0.3,0-0.6,0-0.9,0c-0.9,0.1-1.8,0.3-2.7,0.6l-0.1,0c0,0-0.1,0-0.1,0l-0.1,0l-0.2,0.1
		l0,0l0,0c-1.5,0.4-2.9,0.8-4.4,0.4c-0.6-0.2-1.2-0.5-1.7-0.9c-0.4-0.3-0.7-0.6-1-1c-0.3-0.3-0.6-0.7-0.9-1
		c-0.9-1.1-1.9-2.3-2.3-3.7c-0.1-0.5-0.2-1-0.3-1.5c0-0.3,0-0.6,0-0.9c0-0.2,0-0.4,0-0.6c0-0.2,0-0.3,0-0.5c0,0,0,0,0-0.1
		c0-0.1,0-0.1,0-0.2c0-1.3,0.1-2.6,0.1-3.9c0-0.9,0.1-1.8,0.3-2.6c0-0.1,0.1-0.2,0.1-0.3c0-0.1,0.1-0.1,0.1-0.2
		c0.6-1.3,1.8-2.5,2.8-3.6c0.4-0.4,0.7-0.8,1-1.3c0.5-0.7,0.8-1.4,0.9-2.3c0-0.1,0-0.1,0-0.2s0-0.1,0-0.2c0-1.2-0.7-2.4-0.9-3.5
		c-0.1-0.5-0.2-1,0-1.6c0-0.1,0-0.1,0-0.1c0.5-1.6,2.3-2.4,3.9-2.7c1.7-0.3,3.4-0.2,5.1,0c0.1,0,0.2,0,0.3,0.1
		c0.4,0.1,0.7,0.1,1,0.2c0.8,0.2,1.7,0.4,2.5,0.6c1.1,0.2,2.1,0,3.2-0.1c0.6-0.1,1.1-0.1,1.7-0.2c0.5,0,0.9,0,1.4,0
		c1.9,0,3.7,0.3,5.5,0.9c1.2,0.4,2.4,0.9,3.6,1.1c0.4,0.1,0.8,0.2,1.3,0.2c0,0,0.1,0,0.1,0c2.9,0.1,5.6-1.6,8.4-1.9l0.1,0
		c0.3,0,0.6,0,1,0c2.7,0,5.3,1.2,7.8,2.3c0.8,0.3,1.5,0.7,2.1,1.3C55.6,17.5,56.1,19,56,20.4z"/>
	<path class="st0" d="M30.5,34.7v-6.8h1.9c0,0,0,0,0,0l0,0l0,0c0,0,0,0,0,0l0,0l0,0c0,0,0,0-0.1,0c0,0,0,0,0,0l0,0l0,0h-1.6v-0.4
		c0,0,0,0,0,0l0,0c0,0,0,0,0,0c0,0,0,0,0,0l0,0c0,0,0,0,0,0c0,0-0.1,0-0.1,0.1l0,0l-0.1,0c-0.1,0.1-0.1,0.1-0.2,0.2c0,0,0,0-0.1,0
		c0,0-0.1,0.1-0.1,0.1c0,0,0,0-0.1,0l0,0l0,0l0,0c-0.1,0-0.1,0.1-0.2,0.1v6.6h-2.8c0,0,0,0,0,0c0,0.1,0,0.1,0,0.2h2.8v7.3h0h0l0,0
		l0.1,0l0.1,0c0,0,0,0,0.1,0l0.1,0h0l0.1,0c0,0,0,0,0,0l0.1,0l0.1,0l0,0l0.2,0l0,0l0,0l0,0V35h4.3v0c0,0,0,0,0,0c0-0.1,0-0.1,0-0.2
		c0,0,0,0,0,0L30.5,34.7z M37,34.7h-0.2v0.1V35H37L37,34.7z M34.9,34.7C34.9,34.7,34.9,34.7,34.9,34.7c0,0.1,0,0.1,0,0.2
		c0,0,0,0,0,0v0h1.6v0l0.1-0.2L34.9,34.7z M5.5,15c-0.1,0.5-0.1,1.1,0,1.6v-1.7C5.5,14.9,5.5,15,5.5,15z M32.3,27.9
		c0-0.1,0-0.1,0-0.2h-0.5l0,0c0,0,0,0,0,0c0,0,0,0.1,0,0.1c0,0,0,0,0,0.1l0,0L32.3,27.9L32.3,27.9z M28.9,34.9L28.9,34.9
		C28.8,34.8,28.8,34.8,28.9,34.9c0-0.1,0-0.1,0.1-0.1H18.9c0,0,0,0,0,0c0,0,0,0,0,0c0,0,0,0,0,0s0,0,0,0.1s0,0,0,0h10
		C28.9,34.9,28.9,34.9,28.9,34.9z M15.9,29.7L15.9,29.7L15.9,29.7L15.9,29.7z M15.9,28.7C15.9,28.7,15.9,28.7,15.9,28.7
		c-0.1,0,0,0.1,0,0.1c0,0,0,0,0,0c0,0,0,0,0,0l0,0c0,0,0,0,0,0c0,0,0,0,0,0c0,0,0,0,0,0l0,0c0,0,0,0,0,0l0,0h0l0,0l0,0
		c0,0,0.1,0.1,0.1,0.1L15.9,28.7C15.9,28.7,15.9,28.7,15.9,28.7L15.9,28.7z M28.8,34.7h-1.5C27.7,34.9,28.3,34.8,28.8,34.7
		L28.8,34.7C28.8,34.8,28.8,34.7,28.8,34.7z M31.9,34.9C31.9,34.9,31.9,34.9,31.9,34.9C31.9,34.9,31.9,34.9,31.9,34.9
		C31.9,34.9,31.9,34.9,31.9,34.9c-0.1-0.1-0.1-0.1-0.1-0.1c0,0,0,0,0-0.1c0,0,0,0,0,0c0,0,0,0,0,0h-1.3v-6.8h1.4l0,0c0,0,0,0,0-0.1
		c0,0,0-0.1,0-0.1c0,0,0,0,0,0l0,0h-1.4v-5.2h0c0,0,0,0,0,0c0,0,0,0,0,0l0,0l0,0l0,0c0,0-0.1,0-0.1,0.1c-0.1,0-0.1,0.1-0.2,0.1l0,0
		l-0.1,0c0,0-0.1,0-0.1,0c0,0,0,0-0.1,0c0,0-0.1,0-0.1,0c0,0,0,0-0.1,0c0,0,0,0-0.1,0s0,0-0.1,0c0,0,0,0-0.1,0v4.9H15.9v-6l0,0
		c-0.2,0.1-0.4,0.1-0.5,0.2c-0.2,0.2-0.2,0.5-0.1,0.7c0,0,0,0,0,0.1c0,0,0,0,0,0c0,0,0,0,0,0l0,0c0,0,0,0,0,0c0,0,0,0,0,0l0,0l0,0
		c0,0,0,0,0,0c0,0,0,0,0,0c0,0,0,0,0,0v0c0,0.2-0.1,0.3-0.3,0.4c0,0-0.1,0-0.2,0v4.4H14l0,0.2h0.8v6.8h-1.5c0,0,0,0.1,0,0.1
		c0,0,0,0,0,0c0,0,0,0,0,0.1h1.6v1.4c0,0,0.1,0,0.1,0h0.1l0.1,0h0c0.1,0,0.1,0,0.2,0l0.1,0l0,0l0.1,0h0h0l0,0h0c0,0,0,0,0.1,0l0,0
		l0,0l0.1,0h0l0.1,0v-1.4h13.5v0.3c0,0,0.1,0.1,0.1,0.1l0.1,0c0.1,0.1,0.1,0.1,0.2,0.2l0.1,0.1c0,0,0,0,0.1,0.1l0,0c0,0,0,0,0,0.1
		l0,0c0,0,0,0,0.1,0.1c0,0,0,0,0.1,0.1c0,0,0,0,0,0.1c0,0,0,0.1,0,0.1h0.1l0,0c0,0,0,0,0,0c0,0,0,0.1,0,0.1c0,0,0,0,0,0c0,0,0,0,0,0
		c0,0,0,0,0,0c0,0,0,0,0,0c0,0,0,0,0,0c0,0,0,0,0,0c0,0,0,0.1,0,0.1c0,0,0,0,0.1,0v-1.5L31.9,34.9L31.9,34.9z M15.9,34.7v-6.8h13.5
		v6.8H15.9z M29,34.7h-1.8c0,0,0.1,0,0.1,0.1c0.4,0.2,1.1,0.1,1.5,0.1l0.1,0c0,0-0.1,0-0.1,0C28.9,34.8,28.9,34.8,29,34.7z
		 M7.2,34.7c0,0.1,0.1,0.1,0.1,0.2h5.9c0,0,0,0,0-0.1c0,0,0,0,0,0c0,0,0-0.1,0-0.1L7.2,34.7z M28.8,34.7h-1.5
		C27.7,34.9,28.3,34.8,28.8,34.7L28.8,34.7C28.8,34.8,28.8,34.7,28.8,34.7z M7.2,34.7c0,0.1,0.1,0.1,0.1,0.2h5.9c0,0,0,0,0-0.1
		c0,0,0,0,0,0c0,0,0-0.1,0-0.1L7.2,34.7z M31.9,34.9C31.9,34.9,31.9,34.9,31.9,34.9C31.9,34.9,31.9,34.9,31.9,34.9
		C31.9,34.9,31.9,34.9,31.9,34.9c-0.1-0.1-0.1-0.1-0.1-0.1c0,0,0,0,0-0.1c0,0,0,0,0,0c0,0,0,0,0,0h-1.3v-6.8h1.4l0,0c0,0,0,0,0-0.1
		c0,0,0-0.1,0-0.1c0,0,0,0,0,0l0,0h-1.4v-5.2h0c0,0,0,0,0,0c0,0,0,0,0,0l0,0l0,0l0,0c0,0-0.1,0-0.1,0.1c-0.1,0-0.1,0.1-0.2,0.1l0,0
		l-0.1,0c0,0-0.1,0-0.1,0c0,0,0,0-0.1,0c0,0-0.1,0-0.1,0c0,0,0,0-0.1,0c0,0,0,0-0.1,0s0,0-0.1,0c0,0,0,0-0.1,0v4.9H15.9v-6l0,0
		c-0.2,0.1-0.4,0.1-0.5,0.2c-0.2,0.2-0.2,0.5-0.1,0.7c0,0,0,0,0,0.1c0,0,0,0,0,0c0,0,0,0,0,0l0,0c0,0,0,0,0,0c0,0,0,0,0,0l0,0l0,0
		c0,0,0,0,0,0c0,0,0,0,0,0c0,0,0,0,0,0v0c0,0.2-0.1,0.3-0.3,0.4c0,0-0.1,0-0.2,0v4.4H14l0,0.2h0.8v6.8h-1.5c0,0,0,0.1,0,0.1
		c0,0,0,0,0,0c0,0,0,0,0,0.1h1.6v1.4c0,0,0.1,0,0.1,0h0.1l0.1,0h0c0.1,0,0.1,0,0.2,0l0.1,0l0,0l0.1,0h0h0l0,0h0c0,0,0,0,0.1,0l0,0
		l0,0l0.1,0h0l0.1,0v-1.4h3.2c-0.1-0.1-0.1-0.1-0.1-0.2h-3v-6.8h13.5v6.8H29c0,0-0.1,0.1-0.1,0.1c0,0,0,0,0.1,0l0,0
		c0,0,0.1,0.1,0.2,0.1h0.4v0.3c0,0,0.1,0.1,0.1,0.1l0.1,0c0.1,0.1,0.1,0.1,0.2,0.2l0.1,0.1c0,0,0,0,0.1,0.1l0,0c0,0,0,0,0,0.1l0,0
		c0,0,0,0,0.1,0.1s0,0,0.1,0.1c0,0,0,0,0,0.1s0,0.1,0,0.1h0.1l0,0c0,0,0,0,0,0c0,0,0,0.1,0,0.1c0,0,0,0,0,0c0,0,0,0,0,0c0,0,0,0,0,0
		c0,0,0,0,0,0c0,0,0,0,0,0c0,0,0,0,0,0c0,0,0,0.1,0,0.1c0,0,0,0,0.1,0v-1.5L31.9,34.9L31.9,34.9z M28.8,34.7h-1.5
		C27.7,34.9,28.3,34.8,28.8,34.7L28.8,34.7C28.8,34.8,28.8,34.7,28.8,34.7z M32.3,27.9c0-0.1,0-0.1,0-0.2h-0.5l0,0c0,0,0,0,0,0
		c0,0,0,0.1,0,0.1c0,0,0,0,0,0.1l0,0L32.3,27.9L32.3,27.9z M7.2,34.7c0,0.1,0.1,0.1,0.1,0.2h5.9c0,0,0,0,0-0.1c0,0,0,0,0,0
		c0,0,0-0.1,0-0.1L7.2,34.7z M31.9,34.9C31.9,34.9,31.9,34.9,31.9,34.9C31.9,34.9,31.9,34.9,31.9,34.9
		C31.9,34.9,31.9,34.9,31.9,34.9c-0.1-0.1-0.1-0.1-0.1-0.1c0,0,0,0,0-0.1c0,0,0,0,0,0c0,0,0,0,0,0h-1.3v-6.8h1.4l0,0c0,0,0,0,0-0.1
		c0,0,0-0.1,0-0.1c0,0,0,0,0,0l0,0h-1.4v-5.2h0c0,0,0,0,0,0c0,0,0,0,0,0l0,0l0,0l0,0c0,0-0.1,0-0.1,0.1c-0.1,0-0.1,0.1-0.2,0.1l0,0
		l-0.1,0c0,0-0.1,0-0.1,0c0,0,0,0-0.1,0c0,0-0.1,0-0.1,0c0,0,0,0-0.1,0c0,0,0,0-0.1,0s0,0-0.1,0c0,0,0,0-0.1,0v4.9H15.9v-6l0,0
		c-0.2,0.1-0.4,0.1-0.5,0.2c-0.2,0.2-0.2,0.5-0.1,0.7c0,0,0,0,0,0.1c0,0,0,0,0,0c0,0,0,0,0,0l0,0c0,0,0,0,0,0c0,0,0,0,0,0l0,0l0,0
		c0,0,0,0,0,0c0,0,0,0,0,0c0,0,0,0,0,0v0c0,0.2-0.1,0.3-0.3,0.4c0,0-0.1,0-0.2,0v4.4H14l0,0.2h0.8v6.8h-1.5c0,0,0,0.1,0,0.1
		c0,0,0,0,0,0c0,0,0,0,0,0.1h1.6v1.4c0,0,0.1,0,0.1,0h0.1l0.1,0h0c0.1,0,0.1,0,0.2,0l0.1,0l0,0l0.1,0h0h0l0,0h0c0,0,0,0,0.1,0l0,0
		l0,0l0.1,0h0l0.1,0v-1.4h3.2c-0.1-0.1-0.1-0.1-0.1-0.2h-3v-6.8h13.5v6.8H29c0,0-0.1,0.1-0.1,0.1c0,0,0,0,0.1,0l0,0
		c0,0,0.1,0.1,0.2,0.1h0.4v0.3c0,0,0.1,0.1,0.1,0.1l0.1,0c0.1,0.1,0.1,0.1,0.2,0.2l0.1,0.1c0,0,0,0,0.1,0.1l0,0c0,0,0,0,0,0.1l0,0
		c0,0,0,0,0.1,0.1s0,0,0.1,0.1c0,0,0,0,0,0.1s0,0.1,0,0.1h0.1l0,0c0,0,0,0,0,0c0,0,0,0.1,0,0.1c0,0,0,0,0,0c0,0,0,0,0,0c0,0,0,0,0,0
		c0,0,0,0,0,0c0,0,0,0,0,0c0,0,0,0,0,0c0,0,0,0.1,0,0.1c0,0,0,0,0.1,0v-1.5L31.9,34.9L31.9,34.9z M32.3,27.9c0-0.1,0-0.1,0-0.2h-0.5
		l0,0c0,0,0,0,0,0c0,0,0,0.1,0,0.1c0,0,0,0,0,0.1l0,0L32.3,27.9L32.3,27.9z M7.2,34.7c0,0.1,0.1,0.1,0.1,0.2h5.9c0,0,0,0,0-0.1
		c0,0,0,0,0,0c0,0,0-0.1,0-0.1L7.2,34.7z M31.9,34.9C31.9,34.9,31.9,34.9,31.9,34.9C31.9,34.9,31.9,34.9,31.9,34.9
		C31.9,34.9,31.9,34.9,31.9,34.9c-0.1-0.1-0.1-0.1-0.1-0.1c0,0,0,0,0-0.1c0,0,0,0,0,0c0,0,0,0,0,0h-1.3v-6.8h1.4l0,0c0,0,0,0,0-0.1
		c0,0,0-0.1,0-0.1c0,0,0,0,0,0l0,0h-1.4v-5.2h0c0,0,0,0,0,0c0,0,0,0,0,0l0,0l0,0l0,0c0,0-0.1,0-0.1,0.1c-0.1,0-0.1,0.1-0.2,0.1l0,0
		l-0.1,0c0,0-0.1,0-0.1,0c0,0,0,0-0.1,0c0,0-0.1,0-0.1,0c0,0,0,0-0.1,0c0,0,0,0-0.1,0s0,0-0.1,0c0,0,0,0-0.1,0v4.9H15.9v-6l0,0
		c-0.2,0.1-0.4,0.1-0.5,0.2c-0.2,0.2-0.2,0.5-0.1,0.7c0,0,0,0,0,0.1c0,0,0,0,0,0c0,0,0,0,0,0l0,0c0,0,0,0,0,0c0,0,0,0,0,0l0,0l0,0
		c0,0,0,0,0,0c0,0,0,0,0,0c0,0,0,0,0,0v0c0,0.2-0.1,0.3-0.3,0.4c0,0-0.1,0-0.2,0v4.4H14l0,0.2h0.8v6.8h-1.5c0,0,0,0.1,0,0.1
		c0,0,0,0,0,0c0,0,0,0,0,0.1h1.6v1.4c0,0,0.1,0,0.1,0h0.1l0.1,0h0c0.1,0,0.1,0,0.2,0l0.1,0l0,0l0.1,0h0h0l0,0h0c0,0,0,0,0.1,0l0,0
		l0,0l0.1,0h0l0.1,0v-1.4h3.2c-0.1-0.1-0.1-0.1-0.1-0.2h-3v-6.8h13.5v6.8H29c0,0-0.1,0.1-0.1,0.1c0,0,0,0,0.1,0l0,0
		c0,0,0.1,0.1,0.2,0.1h0.4v0.3c0,0,0.1,0.1,0.1,0.1l0.1,0c0.1,0.1,0.1,0.1,0.2,0.2l0.1,0.1c0,0,0,0,0.1,0.1l0,0c0,0,0,0,0,0.1l0,0
		c0,0,0,0,0.1,0.1s0,0,0.1,0.1c0,0,0,0,0,0.1s0,0.1,0,0.1h0.1l0,0c0,0,0,0,0,0c0,0,0,0.1,0,0.1c0,0,0,0,0,0c0,0,0,0,0,0c0,0,0,0,0,0
		c0,0,0,0,0,0c0,0,0,0,0,0c0,0,0,0,0,0c0,0,0,0.1,0,0.1c0,0,0,0,0.1,0v-1.5L31.9,34.9L31.9,34.9z M32.3,27.9c0-0.1,0-0.1,0-0.2h-0.5
		l0,0c0,0,0,0,0,0c0,0,0,0.1,0,0.1c0,0,0,0,0,0.1l0,0L32.3,27.9L32.3,27.9z M7.2,34.7c0,0.1,0.1,0.1,0.1,0.2h5.9c0,0,0,0,0-0.1
		c0,0,0,0,0,0c0,0,0-0.1,0-0.1L7.2,34.7z M31.9,34.9C31.9,34.9,31.9,34.9,31.9,34.9C31.9,34.9,31.9,34.9,31.9,34.9
		C31.9,34.9,31.9,34.9,31.9,34.9c-0.1-0.1-0.1-0.1-0.1-0.1c0,0,0,0,0-0.1c0,0,0,0,0,0c0,0,0,0,0,0h-1.3v-6.8h1.4l0,0c0,0,0,0,0-0.1
		c0,0,0-0.1,0-0.1c0,0,0,0,0,0l0,0h-1.4v-5.2h0c0,0,0,0,0,0c0,0,0,0,0,0l0,0l0,0l0,0c0,0-0.1,0-0.1,0.1c-0.1,0-0.1,0.1-0.2,0.1l0,0
		l-0.1,0c0,0-0.1,0-0.1,0c0,0,0,0-0.1,0c0,0-0.1,0-0.1,0c0,0,0,0-0.1,0c0,0,0,0-0.1,0s0,0-0.1,0c0,0,0,0-0.1,0v4.9H15.9v-6l0,0
		c-0.2,0.1-0.4,0.1-0.5,0.2c-0.2,0.2-0.2,0.5-0.1,0.7c0,0,0,0,0,0.1c0,0,0,0,0,0c0,0,0,0,0,0l0,0c0,0,0,0,0,0c0,0,0,0,0,0l0,0l0,0
		c0,0,0,0,0,0c0,0,0,0,0,0c0,0,0,0,0,0v0c0,0.2-0.1,0.3-0.3,0.4c0,0-0.1,0-0.2,0v4.4H14l0,0.2h0.8v6.8h-1.5c0,0,0,0.1,0,0.1
		c0,0,0,0,0,0c0,0,0,0,0,0.1h1.6v1.4c0,0,0.1,0,0.1,0h0.1l0.1,0h0c0.1,0,0.1,0,0.2,0l0.1,0l0,0l0.1,0h0h0l0,0h0c0,0,0,0,0.1,0l0,0
		l0,0l0.1,0h0l0.1,0v-1.4h3.2c-0.1-0.1-0.1-0.1-0.1-0.2h-3v-6.8h13.5v6.8H29c0,0-0.1,0.1-0.1,0.1c0,0,0,0,0.1,0l0,0
		c0,0,0.1,0.1,0.2,0.1h0.4v0.3c0,0,0.1,0.1,0.1,0.1l0.1,0c0.1,0.1,0.1,0.1,0.2,0.2l0.1,0.1c0,0,0,0,0.1,0.1l0,0c0,0,0,0,0,0.1l0,0
		c0,0,0,0,0.1,0.1s0,0,0.1,0.1c0,0,0,0,0,0.1s0,0.1,0,0.1h0.1l0,0c0,0,0,0,0,0c0,0,0,0.1,0,0.1c0,0,0,0,0,0c0,0,0,0,0,0c0,0,0,0,0,0
		c0,0,0,0,0,0c0,0,0,0,0,0c0,0,0,0,0,0c0,0,0,0.1,0,0.1c0,0,0,0,0.1,0v-1.5L31.9,34.9L31.9,34.9z M32.3,27.9c0-0.1,0-0.1,0-0.2h-0.5
		l0,0c0,0,0,0,0,0c0,0,0,0.1,0,0.1c0,0,0,0,0,0.1l0,0L32.3,27.9L32.3,27.9z M7.2,34.7c0,0.1,0.1,0.1,0.1,0.2h5.9c0,0,0,0,0-0.1
		c0,0,0,0,0,0c0,0,0-0.1,0-0.1L7.2,34.7z M31.9,34.9C31.9,34.9,31.9,34.9,31.9,34.9C31.9,34.9,31.9,34.9,31.9,34.9
		C31.9,34.9,31.9,34.9,31.9,34.9c-0.1-0.1-0.1-0.1-0.1-0.1c0,0,0,0,0-0.1c0,0,0,0,0,0c0,0,0,0,0,0h-1.3v-6.8h1.4l0,0c0,0,0,0,0-0.1
		c0,0,0-0.1,0-0.1c0,0,0,0,0,0l0,0h-1.4v-5.2h0c0,0,0,0,0,0c0,0,0,0,0,0l0,0l0,0l0,0c0,0-0.1,0-0.1,0.1c-0.1,0-0.1,0.1-0.2,0.1l0,0
		l-0.1,0c0,0-0.1,0-0.1,0c0,0,0,0-0.1,0c0,0-0.1,0-0.1,0c0,0,0,0-0.1,0c0,0,0,0-0.1,0s0,0-0.1,0c0,0,0,0-0.1,0v4.9H15.9v-6l0,0
		c-0.2,0.1-0.4,0.1-0.5,0.2c-0.2,0.2-0.2,0.5-0.1,0.7c0,0,0,0,0,0.1c0,0,0,0,0,0c0,0,0,0,0,0l0,0c0,0,0,0,0,0c0,0,0,0,0,0l0,0l0,0
		c0,0,0,0,0,0c0,0,0,0,0,0c0,0,0,0,0,0v0c0,0.2-0.1,0.3-0.3,0.4c0,0-0.1,0-0.2,0v4.4H14l0,0.2h0.8v6.8h-1.5c0,0,0,0.1,0,0.1
		c0,0,0,0,0,0c0,0,0,0,0,0.1h1.6v1.4c0,0,0.1,0,0.1,0h0.1l0.1,0h0c0.1,0,0.1,0,0.2,0l0.1,0l0,0l0.1,0h0h0l0,0h0c0,0,0,0,0.1,0l0,0
		l0,0l0.1,0h0l0.1,0v-1.4h3.2c-0.1-0.1-0.1-0.1-0.1-0.2h-3v-6.8h13.5v6.8H29c0,0-0.1,0.1-0.1,0.1c0,0,0,0,0.1,0l0,0
		c0,0,0.1,0.1,0.2,0.1h0.4v0.3c0,0,0.1,0.1,0.1,0.1l0.1,0c0.1,0.1,0.1,0.1,0.2,0.2l0.1,0.1c0,0,0,0,0.1,0.1l0,0c0,0,0,0,0,0.1l0,0
		c0,0,0,0,0.1,0.1s0,0,0.1,0.1c0,0,0,0,0,0.1s0,0.1,0,0.1h0.1l0,0c0,0,0,0,0,0c0,0,0,0.1,0,0.1c0,0,0,0,0,0c0,0,0,0,0,0c0,0,0,0,0,0
		c0,0,0,0,0,0c0,0,0,0,0,0c0,0,0,0,0,0c0,0,0,0.1,0,0.1c0,0,0,0,0.1,0v-1.5L31.9,34.9L31.9,34.9z M32.3,27.9c0-0.1,0-0.1,0-0.2h-0.5
		l0,0c0,0,0,0,0,0c0,0,0,0.1,0,0.1c0,0,0,0,0,0.1l0,0L32.3,27.9L32.3,27.9z M7.2,34.7c0,0.1,0.1,0.1,0.1,0.2h5.9c0,0,0,0,0-0.1
		c0,0,0,0,0,0c0,0,0-0.1,0-0.1L7.2,34.7z M31.9,34.9C31.9,34.9,31.9,34.9,31.9,34.9C31.9,34.9,31.9,34.9,31.9,34.9
		C31.9,34.9,31.9,34.9,31.9,34.9c-0.1-0.1-0.1-0.1-0.1-0.1c0,0,0,0,0-0.1c0,0,0,0,0,0c0,0,0,0,0,0h-1.3v-6.8h1.4l0,0c0,0,0,0,0-0.1
		c0,0,0-0.1,0-0.1c0,0,0,0,0,0l0,0h-1.4v-5.2h0c0,0,0,0,0,0c0,0,0,0,0,0l0,0l0,0l0,0c0,0-0.1,0-0.1,0.1c-0.1,0-0.1,0.1-0.2,0.1l0,0
		l-0.1,0c0,0-0.1,0-0.1,0c0,0,0,0-0.1,0c0,0-0.1,0-0.1,0c0,0,0,0-0.1,0c0,0,0,0-0.1,0s0,0-0.1,0c0,0,0,0-0.1,0v4.9H15.9v-6l0,0
		c-0.2,0.1-0.4,0.1-0.5,0.2c-0.2,0.2-0.2,0.5-0.1,0.7c0,0,0,0,0,0.1c0,0,0,0,0,0c0,0,0,0,0,0l0,0c0,0,0,0,0,0c0,0,0,0,0,0l0,0l0,0
		c0,0,0,0,0,0c0,0,0,0,0,0c0,0,0,0,0,0v0c0,0.2-0.1,0.3-0.3,0.4c0,0-0.1,0-0.2,0v4.4H14l0,0.2h0.8v6.8h-1.5c0,0,0,0.1,0,0.1
		c0,0,0,0,0,0c0,0,0,0,0,0.1h1.6v1.4c0,0,0.1,0,0.1,0h0.1l0.1,0h0c0.1,0,0.1,0,0.2,0l0.1,0l0,0l0.1,0h0h0l0,0h0c0,0,0,0,0.1,0l0,0
		l0,0l0.1,0h0l0.1,0v-1.4h3.2c-0.1-0.1-0.1-0.1-0.1-0.2h-3v-6.8h13.5v6.8H29c0,0-0.1,0.1-0.1,0.1c0,0,0,0,0.1,0l0,0
		c0,0,0.1,0.1,0.2,0.1h0.4v0.3c0,0,0.1,0.1,0.1,0.1l0.1,0c0.1,0.1,0.1,0.1,0.2,0.2l0.1,0.1c0,0,0,0,0.1,0.1l0,0c0,0,0,0,0,0.1l0,0
		c0,0,0,0,0.1,0.1s0,0,0.1,0.1c0,0,0,0,0,0.1s0,0.1,0,0.1h0.1l0,0c0,0,0,0,0,0c0,0,0,0.1,0,0.1c0,0,0,0,0,0c0,0,0,0,0,0c0,0,0,0,0,0
		c0,0,0,0,0,0c0,0,0,0,0,0c0,0,0,0,0,0c0,0,0,0.1,0,0.1c0,0,0,0,0.1,0v-1.5L31.9,34.9L31.9,34.9z M32.3,27.9c0-0.1,0-0.1,0-0.2h-0.5
		l0,0c0,0,0,0,0,0c0,0,0,0.1,0,0.1c0,0,0,0,0,0.1l0,0L32.3,27.9L32.3,27.9z M7.2,34.7c0,0.1,0.1,0.1,0.1,0.2h5.9c0,0,0,0,0-0.1
		c0,0,0,0,0,0c0,0,0-0.1,0-0.1L7.2,34.7z M31.9,34.9C31.9,34.9,31.9,34.9,31.9,34.9C31.9,34.9,31.9,34.9,31.9,34.9
		C31.9,34.9,31.9,34.9,31.9,34.9c-0.1-0.1-0.1-0.1-0.1-0.1c0,0,0,0,0-0.1c0,0,0,0,0,0c0,0,0,0,0,0h-1.3v-6.8h1.4l0,0c0,0,0,0,0-0.1
		c0,0,0-0.1,0-0.1c0,0,0,0,0,0l0,0h-1.4v-5.2h0c0,0,0,0,0,0c0,0,0,0,0,0l0,0l0,0l0,0c0,0-0.1,0-0.1,0.1c-0.1,0-0.1,0.1-0.2,0.1l0,0
		l-0.1,0c0,0-0.1,0-0.1,0c0,0,0,0-0.1,0c0,0-0.1,0-0.1,0c0,0,0,0-0.1,0c0,0,0,0-0.1,0s0,0-0.1,0c0,0,0,0-0.1,0v4.9H15.9v-6l0,0
		c-0.2,0.1-0.4,0.1-0.5,0.2c-0.2,0.2-0.2,0.5-0.1,0.7c0,0,0,0,0,0.1c0,0,0,0,0,0c0,0,0,0,0,0l0,0c0,0,0,0,0,0c0,0,0,0,0,0l0,0l0,0
		c0,0,0,0,0,0c0,0,0,0,0,0c0,0,0,0,0,0v0c0,0.2-0.1,0.3-0.3,0.4c0,0-0.1,0-0.2,0v4.4H14l0,0.2h0.8v6.8h-1.5c0,0,0,0.1,0,0.1
		c0,0,0,0,0,0c0,0,0,0,0,0.1h1.6v1.4c0,0,0.1,0,0.1,0h0.1l0.1,0h0c0.1,0,0.1,0,0.2,0l0.1,0l0,0l0.1,0h0h0l0,0h0c0,0,0,0,0.1,0l0,0
		l0,0l0.1,0h0l0.1,0v-1.4h3.2c-0.1-0.1-0.1-0.1-0.1-0.2h-3v-6.8h13.5v6.8H29c0,0-0.1,0.1-0.1,0.1c0,0,0,0,0.1,0l0,0
		c0,0,0.1,0.1,0.2,0.1h0.4v0.3c0,0,0.1,0.1,0.1,0.1l0.1,0c0.1,0.1,0.1,0.1,0.2,0.2l0.1,0.1c0,0,0,0,0.1,0.1l0,0c0,0,0,0,0,0.1l0,0
		c0,0,0,0,0.1,0.1s0,0,0.1,0.1c0,0,0,0,0,0.1s0,0.1,0,0.1h0.1l0,0c0,0,0,0,0,0c0,0,0,0.1,0,0.1c0,0,0,0,0,0c0,0,0,0,0,0c0,0,0,0,0,0
		c0,0,0,0,0,0c0,0,0,0,0,0c0,0,0,0,0,0c0,0,0,0.1,0,0.1c0,0,0,0,0.1,0v-1.5L31.9,34.9L31.9,34.9z M32.3,27.9c0-0.1,0-0.1,0-0.2h-0.5
		l0,0c0,0,0,0,0,0c0,0,0,0.1,0,0.1c0,0,0,0,0,0.1l0,0L32.3,27.9L32.3,27.9z M7.2,34.7c0,0.1,0.1,0.1,0.1,0.2h5.9c0,0,0,0,0-0.1
		c0,0,0,0,0,0c0,0,0-0.1,0-0.1L7.2,34.7z M31.9,34.9C31.9,34.9,31.9,34.9,31.9,34.9C31.9,34.9,31.9,34.9,31.9,34.9
		C31.9,34.9,31.9,34.9,31.9,34.9c-0.1-0.1-0.1-0.1-0.1-0.1c0,0,0,0,0-0.1c0,0,0,0,0,0c0,0,0,0,0,0h-1.3v-6.8h1.4l0,0c0,0,0,0,0-0.1
		c0,0,0-0.1,0-0.1c0,0,0,0,0,0l0,0h-1.4v-5.2h0c0,0,0,0,0,0c0,0,0,0,0,0l0,0l0,0l0,0c0,0-0.1,0-0.1,0.1c-0.1,0-0.1,0.1-0.2,0.1
		c0,0,0,0,0,0c0,0,0,0-0.1,0c0,0-0.1,0-0.1,0c0,0,0,0-0.1,0c0,0-0.1,0-0.1,0c0,0,0,0-0.1,0c0,0,0,0-0.1,0s0,0-0.1,0c0,0,0,0-0.1,0
		v4.9H15.9v-6l0,0c-0.2,0.1-0.4,0.1-0.5,0.2c-0.2,0.2-0.2,0.5-0.1,0.7c0,0,0,0,0,0.1c0,0,0,0,0,0l0,0c0,0,0,0,0,0c0,0,0,0,0,0l0,0
		l0,0c0,0,0,0,0,0c0,0,0,0,0,0c0,0,0,0,0,0v0c0,0.2-0.1,0.3-0.3,0.4c0,0-0.1,0-0.2,0v4.4H14l0,0.2h0.8v6.8h-1.5c0,0,0,0.1,0,0.1
		c0,0,0,0,0,0c0,0,0,0,0,0.1h1.6v1.4c0,0,0.1,0,0.1,0h0.1l0.1,0h0c0.1,0,0.1,0,0.2,0l0.1,0l0,0l0.1,0h0h0l0,0h0c0,0,0,0,0.1,0l0,0
		l0,0l0.1,0h0l0.1,0v-1.4h3.2c-0.1-0.1-0.1-0.1-0.1-0.2h-3v-6.8h13.5v6.8H29c0,0-0.1,0.1-0.1,0.1c0,0,0,0,0.1,0l0,0
		c0,0,0.1,0.1,0.2,0.1h0.4v0.3c0,0,0.1,0.1,0.1,0.1l0.1,0c0.1,0.1,0.1,0.1,0.2,0.2c0,0,0,0,0.1,0.1c0,0,0,0,0.1,0.1l0,0
		c0,0,0,0,0,0.1l0,0c0,0,0,0,0.1,0.1s0,0,0.1,0.1c0,0,0,0,0,0.1s0,0.1,0,0.1h0.1l0,0c0,0,0,0,0,0c0,0,0,0.1,0,0.1c0,0,0,0,0,0
		c0,0,0,0,0,0c0,0,0,0,0,0c0,0,0,0,0,0c0,0,0,0,0,0c0,0,0,0,0,0c0,0,0,0.1,0,0.1c0,0,0,0,0.1,0v-1.5L31.9,34.9L31.9,34.9z
		 M32.3,27.9c0-0.1,0-0.1,0-0.2h-0.5l0,0c0,0,0,0,0,0c0,0,0,0.1,0,0.1c0,0,0,0,0,0.1l0,0L32.3,27.9L32.3,27.9z M44.7,20.4V13
		c-0.3,0-0.6,0-1,0l-0.1,0v7.3H30.8l0,0l0-0.1l0,0L31,20l0.2-0.3l0,0l3.9-4.8c-0.4,0-0.9-0.1-1.3-0.2l-3.3,4.1v-5
		c-0.4-0.1-0.7-0.1-1-0.2v5l-4.8-5.9c-0.5,0-0.9,0-1.4,0l5.9,7.3l0.2,0.2l0,0l0,0H15.9v-7.9c-0.3-0.1-0.7-0.1-1-0.2v8H6.4
		c0,0.1,0,0.1,0,0.2h8.5v7.1H5.5v-4.9c-0.3,0.4-0.7,0.9-1,1.3v3.6H1.7c0,0.1-0.1,0.1-0.1,0.2h2.9v6.8H1c0,0.1,0,0.1,0,0.2h3.4v8.2
		c0.3,0.3,0.7,0.7,1,1v-9.2h9.4v9c0.3,0,0.6,0,0.9,0c0,0,0.1,0,0.1,0v-9h13.5v8c0.1,0,0.3,0,0.4,0c0.2,0,0.4,0,0.6,0.1v-8.1h13.1
		v6.5c0.4-0.2,0.7-0.3,1-0.5v-5.8c-0.4-0.7-0.6-1.4-0.5-2.2c0.1-0.5,0.3-0.9,0.5-1.3v-3.7h5l0.3-0.2h-5.4v-7.1H56c0-0.1,0-0.1,0-0.2
		H44.7z M43.7,20.6v7.1H30.5v-7l0,0l0.2-0.2H43.7z M15.9,20.6h13.5v7.1H15.9L15.9,20.6z M5.5,34.7v-6.8h9.4v6.8H5.5z M15.9,34.7
		v-6.8h13.5v6.8H15.9z M30.5,34.7v-6.8h13.1v6.8H30.5z M32.3,27.9c0-0.1,0-0.1,0-0.2h-0.5l0,0c0,0,0,0,0,0c0,0,0,0.1,0,0.1
		c0,0,0,0,0,0.1l0,0L32.3,27.9L32.3,27.9z M31.9,34.9C31.9,34.9,31.9,34.9,31.9,34.9C31.9,34.9,31.9,34.9,31.9,34.9
		C31.9,34.9,31.9,34.9,31.9,34.9c-0.1-0.1-0.1-0.1-0.1-0.1c0,0,0,0,0-0.1c0,0,0,0,0,0c0,0,0,0,0,0h-1.3v-6.8h1.4l0,0c0,0,0,0,0-0.1
		c0,0,0-0.1,0-0.1c0,0,0,0,0,0l0,0h-1.4v-5.2h0c0,0,0,0,0,0c0,0,0,0,0,0l0,0l0,0l0,0c0,0-0.1,0-0.1,0.1c-0.1,0-0.1,0.1-0.2,0.1l0,0
		l-0.1,0c0,0-0.1,0-0.1,0c0,0,0,0-0.1,0c0,0-0.1,0-0.1,0c0,0,0,0-0.1,0c0,0,0,0-0.1,0s0,0-0.1,0c0,0,0,0-0.1,0v4.9H15.9v-6l0,0
		c-0.2,0.1-0.4,0.1-0.5,0.2c-0.2,0.2-0.2,0.5-0.1,0.7c0,0,0,0,0,0.1c0,0,0,0,0,0c0,0,0,0,0,0l0,0c0,0,0,0,0,0c0,0,0,0,0,0l0,0l0,0
		c0,0,0,0,0,0c0,0,0,0,0,0c0,0,0,0,0,0v0c0,0.2-0.1,0.3-0.3,0.4c0,0-0.1,0-0.2,0v4.4H14l0,0.2h0.8v6.8h-1.5c0,0,0,0.1,0,0.1
		c0,0,0,0,0,0c0,0,0,0,0,0.1h1.6v1.4c0,0,0.1,0,0.1,0h0.1l0.1,0h0c0.1,0,0.1,0,0.2,0l0.1,0l0,0l0.1,0h0h0l0,0h0c0,0,0,0,0.1,0l0,0
		l0,0l0.1,0h0l0.1,0v-1.4h3.2c-0.1-0.1-0.1-0.1-0.1-0.2h-3v-6.8h13.5v6.8H29c0,0-0.1,0.1-0.1,0.1c0,0,0,0,0.1,0l0,0
		c0,0,0.1,0.1,0.2,0.1h0.4v0.3c0,0,0.1,0.1,0.1,0.1l0.1,0c0.1,0.1,0.1,0.1,0.2,0.2l0.1,0.1c0,0,0,0,0.1,0.1l0,0c0,0,0,0,0,0.1l0,0
		c0,0,0,0,0.1,0.1s0,0,0.1,0.1c0,0,0,0,0,0.1s0,0.1,0,0.1h0.1l0,0c0,0,0,0,0,0c0,0,0,0.1,0,0.1c0,0,0,0,0,0c0,0,0,0,0,0c0,0,0,0,0,0
		c0,0,0,0,0,0c0,0,0,0,0,0c0,0,0,0,0,0c0,0,0,0.1,0,0.1c0,0,0,0,0.1,0v-1.5L31.9,34.9L31.9,34.9z M7.2,34.7c0,0.1,0.1,0.1,0.1,0.2
		h5.9c0,0,0,0,0-0.1c0,0,0,0,0,0c0,0,0-0.1,0-0.1L7.2,34.7z M32.3,27.9c0-0.1,0-0.1,0-0.2h-0.5l0,0c0,0,0,0,0,0c0,0,0,0.1,0,0.1
		c0,0,0,0,0,0.1l0,0L32.3,27.9L32.3,27.9z M31.9,34.9C31.9,34.9,31.9,34.9,31.9,34.9C31.9,34.9,31.9,34.9,31.9,34.9
		C31.9,34.9,31.9,34.9,31.9,34.9c-0.1-0.1-0.1-0.1-0.1-0.1c0,0,0,0,0-0.1c0,0,0,0,0,0c0,0,0,0,0,0h-1.3v-6.8h1.4l0,0c0,0,0,0,0-0.1
		c0,0,0-0.1,0-0.1c0,0,0,0,0,0l0,0h-1.4v-5.2h0c0,0,0,0,0,0c0,0,0,0,0,0l0,0l0,0l0,0c0,0-0.1,0-0.1,0.1c-0.1,0-0.1,0.1-0.2,0.1l0,0
		l-0.1,0c0,0-0.1,0-0.1,0c0,0,0,0-0.1,0c0,0-0.1,0-0.1,0c0,0,0,0-0.1,0c0,0,0,0-0.1,0s0,0-0.1,0c0,0,0,0-0.1,0v4.9H15.9v-6l0,0
		c-0.2,0.1-0.4,0.1-0.5,0.2c-0.2,0.2-0.2,0.5-0.1,0.7c0,0,0,0,0,0.1c0,0,0,0,0,0c0,0,0,0,0,0l0,0c0,0,0,0,0,0c0,0,0,0,0,0l0,0l0,0
		c0,0,0,0,0,0c0,0,0,0,0,0c0,0,0,0,0,0v0c0,0.2-0.1,0.3-0.3,0.4c0,0-0.1,0-0.2,0v4.4H14l0,0.2h0.8v6.8h-1.5c0,0,0,0.1,0,0.1
		c0,0,0,0,0,0c0,0,0,0,0,0.1h1.6v1.4c0,0,0.1,0,0.1,0h0.1l0.1,0h0c0.1,0,0.1,0,0.2,0l0.1,0l0,0l0.1,0h0h0l0,0h0c0,0,0,0,0.1,0l0,0
		l0,0l0.1,0h0l0.1,0v-1.4h3.2c-0.1-0.1-0.1-0.1-0.1-0.2h-3v-6.8h13.5v6.8H29c0,0-0.1,0.1-0.1,0.1c0,0,0,0,0.1,0l0,0
		c0,0,0.1,0.1,0.2,0.1h0.4v0.3c0,0,0.1,0.1,0.1,0.1l0.1,0c0.1,0.1,0.1,0.1,0.2,0.2l0.1,0.1c0,0,0,0,0.1,0.1l0,0c0,0,0,0,0,0.1l0,0
		c0,0,0,0,0.1,0.1s0,0,0.1,0.1c0,0,0,0,0,0.1s0,0.1,0,0.1h0.1l0,0c0,0,0,0,0,0c0,0,0,0.1,0,0.1c0,0,0,0,0,0c0,0,0,0,0,0c0,0,0,0,0,0
		c0,0,0,0,0,0c0,0,0,0,0,0c0,0,0,0,0,0c0,0,0,0.1,0,0.1c0,0,0,0,0.1,0v-1.5L31.9,34.9L31.9,34.9z M7.2,34.7c0,0.1,0.1,0.1,0.1,0.2
		h5.9c0,0,0,0,0-0.1c0,0,0,0,0,0c0,0,0-0.1,0-0.1L7.2,34.7z M32.3,27.9c0-0.1,0-0.1,0-0.2h-0.5l0,0c0,0,0,0,0,0c0,0,0,0.1,0,0.1
		c0,0,0,0,0,0.1l0,0L32.3,27.9L32.3,27.9z M31.9,34.9C31.9,34.9,31.9,34.9,31.9,34.9C31.9,34.9,31.9,34.9,31.9,34.9
		C31.9,34.9,31.9,34.9,31.9,34.9c-0.1-0.1-0.1-0.1-0.1-0.1c0,0,0,0,0-0.1c0,0,0,0,0,0c0,0,0,0,0,0h-1.3v-6.8h1.4l0,0c0,0,0,0,0-0.1
		c0,0,0-0.1,0-0.1c0,0,0,0,0,0l0,0h-1.4v-5.2h0c0,0,0,0,0,0c0,0,0,0,0,0l0,0l0,0l0,0c0,0-0.1,0-0.1,0.1c-0.1,0-0.1,0.1-0.2,0.1l0,0
		l-0.1,0c0,0-0.1,0-0.1,0c0,0,0,0-0.1,0c0,0-0.1,0-0.1,0c0,0,0,0-0.1,0c0,0,0,0-0.1,0s0,0-0.1,0c0,0,0,0-0.1,0v4.9H15.9v-6l0,0
		c-0.2,0.1-0.4,0.1-0.5,0.2c-0.2,0.2-0.2,0.5-0.1,0.7c0,0,0,0,0,0.1c0,0,0,0,0,0c0,0,0,0,0,0l0,0c0,0,0,0,0,0c0,0,0,0,0,0l0,0l0,0
		c0,0,0,0,0,0c0,0,0,0,0,0c0,0,0,0,0,0v0c0,0.2-0.1,0.3-0.3,0.4c0,0-0.1,0-0.2,0v4.4H14l0,0.2h0.8v6.8h-1.5c0,0,0,0.1,0,0.1
		c0,0,0,0,0,0c0,0,0,0,0,0.1h1.6v1.4c0,0,0.1,0,0.1,0h0.1l0.1,0h0c0.1,0,0.1,0,0.2,0l0.1,0l0,0l0.1,0h0h0l0,0h0c0,0,0,0,0.1,0l0,0
		l0,0l0.1,0h0l0.1,0v-1.4h3.2c-0.1-0.1-0.1-0.1-0.1-0.2h-3v-6.8h13.5v6.8H29c0,0-0.1,0.1-0.1,0.1c0,0,0,0,0.1,0l0,0
		c0,0,0.1,0.1,0.2,0.1h0.4v0.3c0,0,0.1,0.1,0.1,0.1l0.1,0c0.1,0.1,0.1,0.1,0.2,0.2l0.1,0.1c0,0,0,0,0.1,0.1l0,0c0,0,0,0,0,0.1l0,0
		c0,0,0,0,0.1,0.1s0,0,0.1,0.1c0,0,0,0,0,0.1s0,0.1,0,0.1h0.1l0,0c0,0,0,0,0,0c0,0,0,0.1,0,0.1c0,0,0,0,0,0c0,0,0,0,0,0c0,0,0,0,0,0
		c0,0,0,0,0,0c0,0,0,0,0,0c0,0,0,0,0,0c0,0,0,0.1,0,0.1c0,0,0,0,0.1,0v-1.5L31.9,34.9L31.9,34.9z M7.2,34.7c0,0.1,0.1,0.1,0.1,0.2
		h5.9c0,0,0,0,0-0.1c0,0,0,0,0,0c0,0,0-0.1,0-0.1L7.2,34.7z M32.3,27.9c0-0.1,0-0.1,0-0.2h-0.5l0,0c0,0,0,0,0,0c0,0,0,0.1,0,0.1
		c0,0,0,0,0,0.1l0,0L32.3,27.9L32.3,27.9z M31.9,34.9C31.9,34.9,31.9,34.9,31.9,34.9C31.9,34.9,31.9,34.9,31.9,34.9
		C31.9,34.9,31.9,34.9,31.9,34.9c-0.1-0.1-0.1-0.1-0.1-0.1c0,0,0,0,0-0.1c0,0,0,0,0,0c0,0,0,0,0,0h-1.3v-6.8h1.4l0,0c0,0,0,0,0-0.1
		c0,0,0-0.1,0-0.1c0,0,0,0,0,0l0,0h-1.4v-5.2h0c0,0,0,0,0,0c0,0,0,0,0,0l0,0l0,0l0,0c0,0-0.1,0-0.1,0.1c-0.1,0-0.1,0.1-0.2,0.1l0,0
		l-0.1,0c0,0-0.1,0-0.1,0c0,0,0,0-0.1,0c0,0-0.1,0-0.1,0c0,0,0,0-0.1,0c0,0,0,0-0.1,0s0,0-0.1,0c0,0,0,0-0.1,0v4.9H15.9v-6l0,0
		c-0.2,0.1-0.4,0.1-0.5,0.2c-0.2,0.2-0.2,0.5-0.1,0.7c0,0,0,0,0,0.1c0,0,0,0,0,0c0,0,0,0,0,0l0,0c0,0,0,0,0,0c0,0,0,0,0,0l0,0l0,0
		c0,0,0,0,0,0c0,0,0,0,0,0c0,0,0,0,0,0v0c0,0.2-0.1,0.3-0.3,0.4c0,0-0.1,0-0.2,0v4.4H14l0,0.2h0.8v6.8h-1.5c0,0,0,0.1,0,0.1
		c0,0,0,0,0,0c0,0,0,0,0,0.1h1.6v1.4c0,0,0.1,0,0.1,0h0.1l0.1,0h0c0.1,0,0.1,0,0.2,0l0.1,0l0,0l0.1,0h0h0l0,0h0c0,0,0,0,0.1,0l0,0
		l0,0l0.1,0h0l0.1,0v-1.4h3.2c-0.1-0.1-0.1-0.1-0.1-0.2h-3v-6.8h13.5v6.8H29c0,0-0.1,0.1-0.1,0.1c0,0,0,0,0.1,0l0,0
		c0,0,0.1,0.1,0.2,0.1h0.4v0.3c0,0,0.1,0.1,0.1,0.1l0.1,0c0.1,0.1,0.1,0.1,0.2,0.2l0.1,0.1c0,0,0,0,0.1,0.1l0,0c0,0,0,0,0,0.1l0,0
		c0,0,0,0,0.1,0.1s0,0,0.1,0.1c0,0,0,0,0,0.1s0,0.1,0,0.1h0.1l0,0c0,0,0,0,0,0c0,0,0,0.1,0,0.1c0,0,0,0,0,0c0,0,0,0,0,0c0,0,0,0,0,0
		c0,0,0,0,0,0c0,0,0,0,0,0c0,0,0,0,0,0c0,0,0,0.1,0,0.1c0,0,0,0,0.1,0v-1.5L31.9,34.9L31.9,34.9z M7.2,34.7c0,0.1,0.1,0.1,0.1,0.2
		h5.9c0,0,0,0,0-0.1c0,0,0,0,0,0c0,0,0-0.1,0-0.1L7.2,34.7z M32.3,27.9c0-0.1,0-0.1,0-0.2h-0.5l0,0c0,0,0,0,0,0c0,0,0,0.1,0,0.1
		c0,0,0,0,0,0.1l0,0L32.3,27.9L32.3,27.9z M31.9,34.9C31.9,34.9,31.9,34.9,31.9,34.9C31.9,34.9,31.9,34.9,31.9,34.9
		C31.9,34.9,31.9,34.9,31.9,34.9c-0.1-0.1-0.1-0.1-0.1-0.1c0,0,0,0,0-0.1c0,0,0,0,0,0c0,0,0,0,0,0h-1.3v-6.8h1.4l0,0c0,0,0,0,0-0.1
		c0,0,0-0.1,0-0.1c0,0,0,0,0,0l0,0h-1.4v-5.2h0c0,0,0,0,0,0c0,0,0,0,0,0l0,0l0,0l0,0c0,0-0.1,0-0.1,0.1c-0.1,0-0.1,0.1-0.2,0.1l0,0
		l-0.1,0c0,0-0.1,0-0.1,0c0,0,0,0-0.1,0c0,0-0.1,0-0.1,0c0,0,0,0-0.1,0c0,0,0,0-0.1,0s0,0-0.1,0c0,0,0,0-0.1,0v4.9H15.9v-6l0,0
		c-0.2,0.1-0.4,0.1-0.5,0.2c-0.2,0.2-0.2,0.5-0.1,0.7c0,0,0,0,0,0.1c0,0,0,0,0,0c0,0,0,0,0,0l0,0c0,0,0,0,0,0c0,0,0,0,0,0l0,0l0,0
		c0,0,0,0,0,0c0,0,0,0,0,0c0,0,0,0,0,0v0c0,0.2-0.1,0.3-0.3,0.4c0,0-0.1,0-0.2,0v4.4H14l0,0.2h0.8v6.8h-1.5c0,0,0,0.1,0,0.1
		c0,0,0,0,0,0c0,0,0,0,0,0.1h1.6v1.4c0,0,0.1,0,0.1,0h0.1l0.1,0h0c0.1,0,0.1,0,0.2,0l0.1,0l0,0l0.1,0h0h0l0,0h0c0,0,0,0,0.1,0l0,0
		l0,0l0.1,0h0l0.1,0v-1.4h3.2c-0.1-0.1-0.1-0.1-0.1-0.2h-3v-6.8h13.5v6.8H29c0,0-0.1,0.1-0.1,0.1c0,0,0,0,0.1,0l0,0
		c0,0,0.1,0.1,0.2,0.1h0.4v0.3c0,0,0.1,0.1,0.1,0.1l0.1,0c0.1,0.1,0.1,0.1,0.2,0.2l0.1,0.1c0,0,0,0,0.1,0.1l0,0c0,0,0,0,0,0.1l0,0
		c0,0,0,0,0.1,0.1s0,0,0.1,0.1c0,0,0,0,0,0.1s0,0.1,0,0.1h0.1l0,0c0,0,0,0,0,0c0,0,0,0.1,0,0.1c0,0,0,0,0,0c0,0,0,0,0,0c0,0,0,0,0,0
		c0,0,0,0,0,0c0,0,0,0,0,0c0,0,0,0,0,0c0,0,0,0.1,0,0.1c0,0,0,0,0.1,0v-1.5L31.9,34.9L31.9,34.9z M7.2,34.7c0,0.1,0.1,0.1,0.1,0.2
		h5.9c0,0,0,0,0-0.1c0,0,0,0,0,0c0,0,0-0.1,0-0.1L7.2,34.7z M32.3,27.9c0-0.1,0-0.1,0-0.2h-0.5l0,0c0,0,0,0,0,0c0,0,0,0.1,0,0.1
		c0,0,0,0,0,0.1l0,0L32.3,27.9L32.3,27.9z M31.9,34.9C31.9,34.9,31.9,34.9,31.9,34.9C31.9,34.9,31.9,34.9,31.9,34.9
		C31.9,34.9,31.9,34.9,31.9,34.9c-0.1-0.1-0.1-0.1-0.1-0.1c0,0,0,0,0-0.1c0,0,0,0,0,0c0,0,0,0,0,0h-1.3v-6.8h1.4l0,0c0,0,0,0,0-0.1
		c0,0,0-0.1,0-0.1c0,0,0,0,0,0l0,0h-1.4v-5.2h0c0,0,0,0,0,0c0,0,0,0,0,0l0,0l0,0l0,0c0,0-0.1,0-0.1,0.1c-0.1,0-0.1,0.1-0.2,0.1l0,0
		l-0.1,0c0,0-0.1,0-0.1,0c0,0,0,0-0.1,0c0,0-0.1,0-0.1,0c0,0,0,0-0.1,0c0,0,0,0-0.1,0s0,0-0.1,0c0,0,0,0-0.1,0v4.9H15.9v-6l0,0
		c-0.2,0.1-0.4,0.1-0.5,0.2c-0.2,0.2-0.2,0.5-0.1,0.7c0,0,0,0,0,0.1c0,0,0,0,0,0c0,0,0,0,0,0l0,0c0,0,0,0,0,0c0,0,0,0,0,0l0,0l0,0
		c0,0,0,0,0,0c0,0,0,0,0,0c0,0,0,0,0,0v0c0,0.2-0.1,0.3-0.3,0.4c0,0-0.1,0-0.2,0v4.4H14l0,0.2h0.8v6.8h-1.5c0,0,0,0.1,0,0.1
		c0,0,0,0,0,0c0,0,0,0,0,0.1h1.6v1.4c0,0,0.1,0,0.1,0h0.1l0.1,0h0c0.1,0,0.1,0,0.2,0l0.1,0l0,0l0.1,0h0h0l0,0h0c0,0,0,0,0.1,0l0,0
		l0,0l0.1,0h0l0.1,0v-1.4h3.2c-0.1-0.1-0.1-0.1-0.1-0.2h-3v-6.8h13.5v6.8H29c0,0-0.1,0.1-0.1,0.1c0,0,0,0,0.1,0l0,0
		c0,0,0.1,0.1,0.2,0.1h0.4v0.3c0,0,0.1,0.1,0.1,0.1l0.1,0c0.1,0.1,0.1,0.1,0.2,0.2l0.1,0.1c0,0,0,0,0.1,0.1l0,0c0,0,0,0,0,0.1l0,0
		c0,0,0,0,0.1,0.1s0,0,0.1,0.1c0,0,0,0,0,0.1s0,0.1,0,0.1h0.1l0,0c0,0,0,0,0,0c0,0,0,0.1,0,0.1c0,0,0,0,0,0c0,0,0,0,0,0c0,0,0,0,0,0
		c0,0,0,0,0,0c0,0,0,0,0,0c0,0,0,0,0,0c0,0,0,0.1,0,0.1c0,0,0,0,0.1,0v-1.5L31.9,34.9L31.9,34.9z M7.2,34.7c0,0.1,0.1,0.1,0.1,0.2
		h5.9c0,0,0,0,0-0.1c0,0,0,0,0,0c0,0,0-0.1,0-0.1L7.2,34.7z M32.3,27.9c0-0.1,0-0.1,0-0.2h-0.5l0,0c0,0,0,0,0,0c0,0,0,0.1,0,0.1
		c0,0,0,0,0,0.1l0,0L32.3,27.9L32.3,27.9z M31.9,34.9C31.9,34.9,31.9,34.9,31.9,34.9C31.9,34.9,31.9,34.9,31.9,34.9
		C31.9,34.9,31.9,34.9,31.9,34.9c-0.1-0.1-0.1-0.1-0.1-0.1c0,0,0,0,0-0.1c0,0,0,0,0,0c0,0,0,0,0,0h-1.3v-6.8h1.4l0,0c0,0,0,0,0-0.1
		c0,0,0-0.1,0-0.1c0,0,0,0,0,0l0,0h-1.4v-5.2h0c0,0,0,0,0,0c0,0,0,0,0,0l0,0l0,0l0,0c0,0-0.1,0-0.1,0.1c-0.1,0-0.1,0.1-0.2,0.1l0,0
		l-0.1,0c0,0-0.1,0-0.1,0c0,0,0,0-0.1,0c0,0-0.1,0-0.1,0c0,0,0,0-0.1,0c0,0,0,0-0.1,0s0,0-0.1,0c0,0,0,0-0.1,0v4.9H15.9v-6l0,0
		c-0.2,0.1-0.4,0.1-0.5,0.2c-0.2,0.2-0.2,0.5-0.1,0.7c0,0,0,0,0,0.1c0,0,0,0,0,0c0,0,0,0,0,0l0,0c0,0,0,0,0,0c0,0,0,0,0,0l0,0l0,0
		c0,0,0,0,0,0c0,0,0,0,0,0c0,0,0,0,0,0v0c0,0.2-0.1,0.3-0.3,0.4c0,0-0.1,0-0.2,0v4.4H14l0,0.2h0.8v6.8h-1.5c0,0,0,0.1,0,0.1
		c0,0,0,0,0,0c0,0,0,0,0,0.1h1.6v1.4c0,0,0.1,0,0.1,0h0.1l0.1,0h0c0.1,0,0.1,0,0.2,0l0.1,0l0,0l0.1,0h0h0l0,0h0c0,0,0,0,0.1,0l0,0
		l0,0l0.1,0h0l0.1,0v-1.4h3.2c-0.1-0.1-0.1-0.1-0.1-0.2h-3v-6.8h13.5v6.8H29c0,0-0.1,0.1-0.1,0.1c0,0,0,0,0.1,0l0,0
		c0,0,0.1,0.1,0.2,0.1h0.4v0.3c0,0,0.1,0.1,0.1,0.1l0.1,0c0.1,0.1,0.1,0.1,0.2,0.2l0.1,0.1c0,0,0,0,0.1,0.1l0,0c0,0,0,0,0,0.1l0,0
		c0,0,0,0,0.1,0.1s0,0,0.1,0.1c0,0,0,0,0,0.1s0,0.1,0,0.1h0.1l0,0c0,0,0,0,0,0c0,0,0,0.1,0,0.1c0,0,0,0,0,0c0,0,0,0,0,0c0,0,0,0,0,0
		c0,0,0,0,0,0c0,0,0,0,0,0c0,0,0,0,0,0c0,0,0,0.1,0,0.1c0,0,0,0,0.1,0v-1.5L31.9,34.9L31.9,34.9z M7.2,34.7c0,0.1,0.1,0.1,0.1,0.2
		h5.9c0,0,0,0,0-0.1c0,0,0,0,0,0c0,0,0-0.1,0-0.1L7.2,34.7z M32.3,27.9c0-0.1,0-0.1,0-0.2h-0.5l0,0c0,0,0,0,0,0c0,0,0,0.1,0,0.1
		c0,0,0,0,0,0.1l0,0L32.3,27.9L32.3,27.9z M31.9,34.9C31.9,34.9,31.9,34.9,31.9,34.9C31.9,34.9,31.9,34.9,31.9,34.9
		C31.9,34.9,31.9,34.9,31.9,34.9c-0.1-0.1-0.1-0.1-0.1-0.1c0,0,0,0,0-0.1c0,0,0,0,0,0c0,0,0,0,0,0h-1.3v-6.8h1.4l0,0c0,0,0,0,0-0.1
		c0,0,0-0.1,0-0.1c0,0,0,0,0,0l0,0h-1.4v-5.2h0c0,0,0,0,0,0c0,0,0,0,0,0l0,0l0,0l0,0c0,0-0.1,0-0.1,0.1c-0.1,0-0.1,0.1-0.2,0.1l0,0
		l-0.1,0c0,0-0.1,0-0.1,0c0,0,0,0-0.1,0c0,0-0.1,0-0.1,0c0,0,0,0-0.1,0c0,0,0,0-0.1,0s0,0-0.1,0c0,0,0,0-0.1,0v4.9H15.9v-6l0,0
		c-0.2,0.1-0.4,0.1-0.5,0.2c-0.2,0.2-0.2,0.5-0.1,0.7c0,0,0,0,0,0.1c0,0,0,0,0,0c0,0,0,0,0,0l0,0c0,0,0,0,0,0c0,0,0,0,0,0l0,0l0,0
		c0,0,0,0,0,0c0,0,0,0,0,0c0,0,0,0,0,0v0c0,0.2-0.1,0.3-0.3,0.4c0,0-0.1,0-0.2,0v4.4H14l0,0.2h0.8v6.8h-1.5c0,0,0,0.1,0,0.1
		c0,0,0,0,0,0c0,0,0,0,0,0.1h1.6v1.4c0,0,0.1,0,0.1,0h0.1l0.1,0h0c0.1,0,0.1,0,0.2,0l0.1,0l0,0l0.1,0h0h0l0,0h0c0,0,0,0,0.1,0l0,0
		l0,0l0.1,0h0l0.1,0v-1.4h3.2c-0.1-0.1-0.1-0.1-0.1-0.2h-3v-6.8h13.5v6.8h-2.3c0,0,0.1,0,0.1,0.1c0.4,0.2,1.1,0.1,1.5,0.1l0.1,0l0,0
		c0,0,0.1,0.1,0.2,0.1h0.4v0.3c0,0,0.1,0.1,0.1,0.1l0.1,0c0.1,0.1,0.1,0.1,0.2,0.2l0.1,0.1c0,0,0,0,0.1,0.1l0,0c0,0,0,0,0,0.1l0,0
		c0,0,0,0,0.1,0.1c0,0,0,0,0.1,0.1c0,0,0,0,0,0.1c0,0,0,0.1,0,0.1h0.1l0,0c0,0,0,0,0,0c0,0,0,0.1,0,0.1c0,0,0,0,0,0c0,0,0,0,0,0
		c0,0,0,0,0,0c0,0,0,0,0,0c0,0,0,0,0,0c0,0,0,0,0,0c0,0,0,0.1,0,0.1c0,0,0,0,0.1,0v-1.5L31.9,34.9L31.9,34.9z M7.2,34.7
		c0,0.1,0.1,0.1,0.1,0.2h5.9c0,0,0,0,0-0.1c0,0,0,0,0,0c0,0,0-0.1,0-0.1L7.2,34.7z M29,34.7h-1.8c0,0,0.1,0,0.1,0.1
		c0.4,0.2,1.1,0.1,1.5,0.1l0.1,0c0,0-0.1,0-0.1,0C28.9,34.8,28.9,34.8,29,34.7z M30.5,34.7v-6.8h1.9c0,0,0,0,0,0l0,0l0,0
		c0,0,0,0,0,0l0,0l0,0c0,0,0,0-0.1,0c0,0,0,0,0,0l0,0l0,0h-1.6v-0.4c0,0,0,0,0,0l0,0c0,0,0,0,0,0c0,0,0,0,0,0l0,0c0,0,0,0,0,0
		c0,0-0.1,0-0.1,0.1l0,0l-0.1,0c-0.1,0.1-0.1,0.1-0.2,0.2c0,0,0,0-0.1,0c0,0-0.1,0.1-0.1,0.1c0,0,0,0-0.1,0l0,0l0,0l0,0
		c-0.1,0-0.1,0.1-0.2,0.1v6.6h-2.8c0,0,0,0,0,0c0,0.1,0,0.1,0,0.2h2.8v7.3c0,0,0,0,0,0h0l0,0l0.1,0l0.1,0c0,0,0,0,0.1,0l0.1,0h0
		l0.1,0c0,0,0,0,0,0l0.1,0l0.1,0l0,0l0.2,0l0,0l0,0l0,0V35h4.2c0-0.1,0-0.1,0-0.2L30.5,34.7z M34.8,34.7c0,0.1,0,0.1,0,0.2h1.8
		l0.1-0.2H34.8z M37,34.7h-0.2v0.1V35H37L37,34.7z M30.5,34.7v-6.8h1.9c0,0,0,0,0,0l0,0l0,0c0,0,0,0,0,0l0,0l0,0c0,0,0,0-0.1,0
		c0,0,0,0,0,0l0,0l0,0h-1.6v-0.4c0,0,0,0,0,0l0,0c0,0,0,0,0,0c0,0,0,0,0,0l0,0c0,0,0,0,0,0c0,0-0.1,0-0.1,0.1l0,0l-0.1,0
		c-0.1,0.1-0.1,0.1-0.2,0.2c0,0,0,0-0.1,0c0,0-0.1,0.1-0.1,0.1c0,0,0,0-0.1,0l0,0l0,0l0,0c-0.1,0-0.1,0.1-0.2,0.1v6.6h-2.8
		c0,0,0,0,0,0c0,0.1,0,0.1,0,0.2h2.8v7.3h0h0l0,0l0.1,0l0.1,0c0,0,0,0,0.1,0l0.1,0h0l0.1,0c0,0,0,0,0,0l0.1,0l0.1,0l0,0l0.2,0l0,0
		l0,0l0,0V35h4.3v0c0,0,0,0,0,0c0-0.1,0-0.1,0-0.2c0,0,0,0,0,0L30.5,34.7z M34.9,34.7C34.9,34.7,34.9,34.7,34.9,34.7
		c0,0.1,0,0.1,0,0.2c0,0,0,0,0,0v0h1.6v0l0.1-0.2L34.9,34.7z M37,34.7h-0.2v0.1V35H37L37,34.7z"/>
	<path class="st1" d="M46.1,37.8l-1.4,0l-1.1,0l-2.1,0h-0.1l-1.8,0l0,0L36,37.6l-2,0l-0.2,0h-0.1l0,0l-0.2,0h0h-0.1l-1,0l-0.6,0
		l-0.2,0l0,0h-0.1h0l-1.1,0l-1,0L21,37.4h-0.1l-3.2-0.1l-0.2,0l0,0l-1.5,0l-1,0l-0.9,0h-0.1l-3.7-0.1l0,0l-1.2,0l-3.4-0.1l-0.3,0h0
		l-0.7,0L1,37c0-0.3,0-0.6,0-0.9c0-0.2,0-0.4,0-0.6l3.4,0.1l0.7,0h0l0.4,0l1.6,0l0.8,0l5,0.1l0.4,0l1.6,0l0.2,0l0.4,0l0.5,0h0l1.5,0
		l2.2,0l0.1,0l5.1,0.1H25l4.5,0.1l0.7,0l0.1,0h0.1l0.2,0l0.2,0l0,0l0.9,0l0,0h0.1l0.3,0h0.1l0.1,0l0.6,0l2.2,0h0.1l0.1,0l6.1,0.1
		h0.1l2.2,0l0.9,0l0.1,0l0.8,0.1c0.1,0.1,0.2,0.3,0.2,0.4C45.9,37.2,46,37.5,46.1,37.8z"/>
	<path class="st2" d="M46.1,37.8l-1.4,0l-1.1,0l-2.1,0h-0.1l-1.8,0l0,0L36,37.6l-2,0l-0.2,0h-0.1l0,0l-0.2,0h0h-0.1l-1,0l-0.6,0
		l-0.2,0l0,0h-0.1h0l-1.1,0l-1,0L21,37.4h-0.1l-3.2-0.1l-0.2,0l0,0l-1.5,0l-1,0l-0.9,0h-0.1l-3.7-0.1l0,0l-1.2,0l-3.4-0.1l-0.3,0h0
		l-0.7,0L1,37c0-0.3,0-0.6,0-0.9l3.4,0.1l0.7,0h0l0.3,0l2,0l1.1,0l1.9,0l1.9,0l0,0l1.1,0h0l1.2,0h0l0.1,0l1,0h0l0.5,0l0.2,0l0.3,0
		l0,0l3.1,0.1h0.1l9.2,0.2l1,0l0.9,0h0h0h0.1l0.7,0l0.1,0l0,0h0.1l2.2,0h0.1l0.2,0l2.6,0.1l0,0l2.9,0.1l0,0l0.8,0h0.1l2.3,0l1,0l1,0
		C45.9,37.2,46,37.5,46.1,37.8z"/>
	
		<linearGradient id="SVGID_1_" gradientUnits="userSpaceOnUse" x1="52.5503" y1="-81.1738" x2="52.5503" y2="-56.2486" gradientTransform="matrix(1 0 0 -1 -19.44 -36.5029)">
		<stop  offset="0" style="stop-color:#808080;stop-opacity:0.25"/>
		<stop  offset="0.54" style="stop-color:#808080;stop-opacity:0.12"/>
		<stop  offset="1" style="stop-color:#808080;stop-opacity:0.1"/>
	</linearGradient>
	<path class="st3" d="M42.2,42.2C42.1,42.3,42.1,42.3,42.2,42.2c-0.1,0.1-0.2,0.1-0.3,0.2l0,0c-0.1,0.1-0.2,0.1-0.3,0.2
		c-0.1,0-0.1,0.1-0.2,0.1c0,0-0.1,0.1-0.1,0.1c-0.1,0.1-0.1,0.2-0.2,0.2l-0.1,0.1c-0.1,0.1-0.1,0.1-0.2,0.2
		c-0.1,0.1-0.1,0.2-0.2,0.2c-0.1,0.1-0.2,0.2-0.3,0.4c0,0-0.1,0.1-0.1,0.1c-0.2,0.2-0.3,0.4-0.5,0.6l-4.1,0h-0.6h-0.6l0,0l0,0
		l-0.1-0.1l-0.1,0c-0.1-0.1-0.3-0.1-0.4-0.2l0,0c-0.2-0.1-0.4-0.2-0.5-0.3c-0.1-0.1-0.2-0.1-0.3-0.2c-0.4-0.2-0.7-0.3-1.1-0.4
		c-0.5-0.2-1-0.3-1.5-0.4c-0.2,0-0.4-0.1-0.6-0.1c-0.1,0-0.3,0-0.4,0c-1.1-0.1-2.2,0.1-3.3,0.4c-0.1,0-0.3,0.1-0.4,0.1
		c0,0-0.1,0-0.1,0c0,0,0,0,0-0.1c0-0.2,0.2-0.4,0.4-0.6c0.1-1.2,1.1-2.1,1.1-2.1l2.3-1l0,0c0.4-0.3,0.8-0.5,1-0.6c0,0,0.1,0,0.1,0
		c0.4-0.1,0.8-0.4,1.1-0.6c0.1-0.1,0.2-0.4,0.1-0.7c0,0,0,0,0-0.1l-0.1,0l0,0l0,0c0,0,0,0,0,0h0h0h0c0-0.1-0.1-0.1-0.1-0.2
		c-0.1-0.2-0.1-0.4-0.2-0.6c0,0,0,0,0,0c0-0.1,0-0.2,0-0.3c0-0.1,0-0.1,0-0.2c0,0,0-0.1,0-0.1l0,0l0,0l-0.1,0l0,0l0,0l-0.7,0.1
		l-0.1,0l0,0c0,0,0,0,0,0c0,0,0,0,0,0l-0.1,0l0,0c0,0,0,0,0-0.1l-0.1,0l0,0c-0.3,0-0.5,0-0.8,0c-1-0.1-2.2-0.3-2.2-0.3
		S25.9,36.4,25,36c-0.2-0.1-0.3-0.2-0.5-0.3l0,0c-0.1-0.1-0.2-0.3-0.3-0.5c0-0.1-0.1-0.1-0.1-0.2c0-0.1,0-0.1,0-0.2
		c0.1-0.9,2.6-0.3,3.2,0c0,0,0.1,0,0.1,0c0.4,0.1,1,0.1,1.4,0l0.1,0c0,0,0,0,0,0l0,0c0.2-0.1,0.5-0.2,0.7-0.3c0.1,0,0.3-0.1,0.5,0
		c0.2,0,0.3,0,0.5,0h0c0,0,0.1,0,0.1,0c0.1-0.1,0.2-0.2,0.2-0.3c0-0.2,0-0.3,0.1-0.5c0,0,0.2,0.1,0.2-0.2l0,0c0-0.1,0-0.1,0-0.2
		c0,0,0-0.1,0-0.1c0,0,0,0,0,0c-0.1-0.5,0.1-1,0.1-1l0.1-0.2l0,0l0,0L31,31.6l0,0l0-0.1l0-1.1c0,0,0-1.8,0.6-2l0-0.1l0-0.1
		c0,0-0.2-0.1-0.4-0.2c0,0-0.1-0.1-0.1-0.1l0,0c0,0,0-0.1,0-0.1c0,0,0-0.1,0.1-0.1c0.2-0.2,0.3-0.4,0.4-0.7c0,0,0.1-0.1,0.2-0.3
		c0,0,0,0,0,0c-0.1-0.4-0.2-0.8-0.3-1.1c0,0,0-0.1,0-0.1c0,0,0,0,0-0.1c0,0,0-0.1,0-0.1l0,0c-0.1,0-0.3,0-0.4,0
		c-1.3,0-2.4-1.1-2.4-2.4c0-0.2,0-0.4,0.1-0.5c0,0,0-0.1,0-0.1c0,0,0,0,0-0.1c-0.1,0-0.2,0-0.3,0c-0.1,0.1-0.2,0.1-0.3,0.2
		c-0.1,0.1-0.2,0.1-0.4,0.1c-0.1,0-0.2,0-0.2,0l0,0c-0.1,0-0.2-0.1-0.3-0.1c0,0,0,0,0.1,0h0l0,0h0c0,0,0,0,0,0l0,0c0,0,0,0,0,0l0,0
		l0,0l0,0c0,0,0,0,0,0c0,0,0,0,0,0l0,0l0,0c0,0,0,0,0,0c0.1,0,0.1-0.1,0.2-0.1c0.2-0.2,0.3-0.4,0.4-0.6l0.3-0.6
		c0.1-0.1,0.1-0.2,0.2-0.3c0-0.1,0.1-0.1,0.2-0.2c0.1-0.1,0.1-0.1,0.2-0.1c0.1-0.1,0.3-0.1,0.4-0.1c0.2,0,0.5,0,0.7,0
		c0.3,0,0.6-0.1,0.9-0.2c0.1-0.1,0.3-0.1,0.4-0.1l0,0c0.1,0,0.1,0,0.2,0c0.2,0,0.3,0,0.5,0.1c0.2,0.1,0.4,0.3,0.6,0.4
		c0,0,0,0.1,0.1,0.1c0.1,0.1,0.1,0.1,0.2,0.2c0,0.1,0.1,0.1,0.1,0.2c0.2,0.3,0.5,0.5,0.7,0.7s0.4,0.6,0.3,1v0c0,0,0,0,0,0l0,0
		c0,0,0,0,0,0.1c0,0,0,0,0,0c0,0,0,0,0,0.1l0,0c0,0,0,0,0,0.1c0,0.1-0.1,0.3-0.1,0.4c0,0,0,0,0,0.1l0,0c0,0.2,0.1,0.3,0.1,0.5
		c0,0.1,0,0.2,0,0.2c0,0,0,0,0,0v0c0,0,0,0,0,0l0,0c0,0,0,0,0,0.1l0,0c0,0,0,0,0,0c0,0,0,0,0,0c0,0,0,0,0,0c0,0,0,0,0,0c0,0,0,0,0,0
		l0,0l0,0c0,0,0,0,0,0c0,0,0,0,0,0c0,0,0,0,0,0c0,0,0,0,0,0l0.1,0c0,0,0,0,0,0c0.2,0,0.9,0.2,1.2,0.2c0.1,0,0.2,0.1,0.4,0.1
		c0.7,0.3,1.2,0.9,1.5,1.5c0.2,0.5,0.5,1,0.6,1.1c0.1,0.1,0.2,0.3,0.3,0.4c0,0.1,0.1,0.1,0.1,0.2c0.1,0.1,0.1,0.3,0.1,0.3
		s1.1,0.7,1,1.5c0,0,0.2,0.8,0.5,1s0.8,2.1,0.8,2.1s0.2,0.4,0.2,0.6c0,0.3,0.2,0.8,0.2,0.8s0,0.2,0.1,0.5c0,0.1,0,0.1,0.1,0.2
		c0,0.1,0.1,0.2,0.1,0.3c0.1,0.1,0.1,0.4,0.1,0.4s0.2,0.4,0.3,0.6c0,0.1,0,0.1,0,0.2c0,0.1,0,0.2,0,0.3c0,0,0,0.1,0,0.2
		c0,0.2,0,0.5,0.1,0.6c0,0.1,0.1,0.1,0.1,0.2c0,0.3,0,0.7,0.1,0.8c0.2,0.1,0.1,1.4,0.1,1.4S42,41.4,42.2,42.2z"/>
	<path class="st4" d="M36.2,39.2L36,39.3L35.2,40l-0.2,0.1l-0.7,0.6c0,0-1.9,1.1-3.9,2c-0.2,0.1-0.4,0.2-0.6,0.3c-0.1,0-0.3,0-0.4,0
		c-1.1-0.1-2.2,0.1-3.3,0.4c0-0.1,0-0.3,0-0.4c0.1-1.2,1.1-2.1,1.1-2.1l2.3-1h0l0,0l1-0.5l1.6-0.7l0.5,0.1l0.9,0.1L36.2,39.2z"/>
	<path class="st5" d="M36.2,39.2L36,39.3L35.2,40l-0.2,0.1l-0.7,0.6c0,0-1.9,1.1-3.9,2c-0.2,0.1-0.4,0.2-0.6,0.3c-0.1,0-0.3,0-0.4,0
		c-1.1-0.1-2.2,0.1-3.3,0.4c0-0.1,0-0.3,0-0.4c0.1-1.2,1.1-2.1,1.1-2.1l2.3-1h0l0,0l1-0.5l1.6-0.7l0.5,0.1l0.9,0.1L36.2,39.2z"/>
	<path class="st6" d="M34.1,43.8L34.1,43.8l0,0.3l0,0l0,0l0,0.1l0,0.1l0,0c-0.2-0.1-0.4-0.2-0.5-0.3c-0.1-0.1-0.2-0.1-0.3-0.2
		c-0.4-0.2-0.7-0.3-1.1-0.4l0.1-0.2l0.6,0.2l0.9,0.3l0.2,0l0.1,0L34.1,43.8z"/>
	<path class="st5" d="M34.1,43.8L34.1,43.8l0,0.3l0,0l0,0l0,0.1l0,0.1l0,0c-0.2-0.1-0.4-0.2-0.5-0.3c-0.1-0.1-0.2-0.1-0.3-0.2
		c-0.4-0.2-0.7-0.3-1.1-0.4l0.1-0.2l0.6,0.2l0.9,0.3l0.2,0l0.1,0L34.1,43.8z"/>
	<polygon class="st7" points="32.7,43.1 33.9,43.6 34.1,44.1 32.8,43.6 	"/>
	<polygon class="st5" points="32.7,43.1 33.9,43.6 34.1,44.1 32.8,43.6 	"/>
	<path class="st6" d="M40.7,43.7c-0.1,0.1-0.2,0.2-0.3,0.4c0,0-0.1,0.1-0.1,0.1c-0.2,0.2-0.3,0.4-0.5,0.6l0,0l-5.2,0l0,0l0,0l0,0
		l0,0l-0.1-0.1l-0.1,0c-0.1-0.1-0.3-0.1-0.4-0.2l0,0l0-0.1l0-0.1l0,0l0-0.2l0,0l0-0.1l0.1,0L40.7,43.7z"/>
	<path class="st8" d="M35.8,44.7L35.8,44.7l-0.5,0h0l-0.6,0l-0.1-0.1l0-0.4v-0.1l0-0.2l1.2-0.1l0.1,0l0,0.2l0,0.1L35.8,44.7
		L35.8,44.7z"/>
	<path class="st6" d="M35.7,44.7L35.7,44.7l-0.5,0l-0.6,0l0,0l-0.1-0.1l-0.1,0l0-0.4v-0.1l0-0.2l1.2-0.1v0l0,0.2l0,0.1L35.7,44.7
		L35.7,44.7z"/>
	<path class="st9" d="M35.7,44.7L35.7,44.7l-0.5,0l-0.6,0l0,0l-0.1-0.1l-0.1,0l0-0.4v-0.1l0-0.2l1.2-0.1v0l0,0.2l0,0.1L35.7,44.7
		L35.7,44.7z"/>
	<path class="st8" d="M34.1,43.9l6.6-0.2c-0.1,0.1-0.2,0.2-0.3,0.4c0,0-0.1,0.1-0.1,0.1l-4.6,0.1h0l-1.2,0h0l0,0l-0.3,0c0,0,0,0,0,0
		c0,0,0,0,0,0l0-0.1l0,0L34.1,43.9L34.1,43.9L34.1,43.9L34.1,43.9z"/>
	<path class="st7" d="M41.1,43.2L41.1,43.2c-0.1,0.1-0.2,0.2-0.2,0.3c-0.1,0.1-0.1,0.2-0.2,0.2c-0.1,0.1-0.2,0.2-0.3,0.4l-4.7,0.1h0
		l-1.2,0h0l-0.3,0h0c0,0,0,0,0,0h0c-0.1,0-0.2-0.2-0.2-0.3l0-0.1l0-0.1l0-0.1l0-0.1l0,0L41.1,43.2z"/>
	<path class="st6" d="M41.4,42.6l0.2,0.1c-0.1,0-0.1,0.1-0.2,0.1c0,0-0.1,0.1-0.1,0.1c-0.1,0.1-0.1,0.2-0.2,0.2l-0.1,0.1
		c-0.1,0.1-0.1,0.1-0.2,0.2L34,43.6l0,0h-0.1l0-0.1l-0.3-1.1l6.7,0.2l0,0l0.4,0L41.4,42.6z"/>
	<path class="st4" d="M41.9,42.4c-0.1,0.1-0.2,0.1-0.3,0.2c-0.1,0-0.1,0.1-0.2,0.1c0,0-0.1,0.1-0.1,0.1c-0.1,0.1-0.1,0.2-0.2,0.2
		l-0.1,0.1c-1.2,0.1-3.2,0.3-5,0.2c-0.7,0-1.4,0-2.1,0.2l0,0l-0.1,0l-0.1,0c-0.1,0-0.1,0-0.2,0.1c-0.1,0-0.3,0.1-0.4,0.1l-0.1,0
		c-0.4-0.2-0.7-0.3-1.1-0.4c-0.5-0.2-1-0.3-1.5-0.4c-0.2,0-0.4-0.1-0.6-0.1c-0.1,0-0.3,0-0.4,0c-1.1-0.1-2.2,0.1-3.3,0.4
		c-0.1,0-0.3,0.1-0.4,0.1l0,0c0-0.2,0.2-0.4,0.4-0.6c0.7-0.6,2.1-1.3,2.1-1.3l0.7-0.3l0,0l0.5-0.2l1-0.4l2.2-0.9l0,0l0.5-0.2
		l0.5-0.2c0.3-0.1,0.7-0.1,1-0.1c0,0,0.1,0,0.1,0c0,0,0.1,0,0.1,0h0h0c0.1,0,0.2,0,0.2,0c0,0,0.1,0,0.1,0h0l0.1,0c0,0,0.1,0,0.1,0
		l0.1,0c0.1,0,0.1,0,0.2,0c0.1,0,0.2,0,0.2,0l0.1,0c0.1,0,0.2,0.1,0.4,0.1l0.1,0l0.1,0l0.1,0c0.2,0.1,0.4,0.1,0.7,0.2l0.1,0l0.1,0
		c0,0,0,0,0,0c0.1,0,0.1,0.1,0.2,0.1c0.4,0.2,0.8,0.3,1.1,0.5l0.1,0.1l0.1,0c0,0,0.1,0,0.1,0.1l0.1,0.1l0.1,0l0.1,0l0.1,0
		c0.1,0.1,0.3,0.2,0.4,0.2c0,0,0.1,0,0.1,0.1l0.1,0c0.1,0,0.1,0.1,0.2,0.1c0,0,0.1,0,0.1,0.1c0,0,0.1,0.1,0.1,0.1c0,0,0.1,0,0.1,0.1
		l0,0c0,0,0.1,0,0.1,0.1l0.1,0c0,0,0.1,0,0.1,0.1c0,0,0,0,0,0l0,0l0.1,0.1c0,0,0,0,0,0l0.1,0.1l0.1,0.1c0,0,0.1,0.1,0.1,0.1
		c0,0,0,0,0.1,0l0,0l0,0l0,0l0,0c0,0,0,0,0,0c0,0,0.1,0.1,0.1,0.1C41.8,42.3,41.9,42.3,41.9,42.4L41.9,42.4z"/>
	<path class="st10" d="M30.6,36.5c-0.1,0.1-0.3,0.1-0.4,0.1c-1,0.1-2.9-0.3-2.9-0.3s-2.4,0.5-3.1-1c-0.7-1.5,2.5-0.8,3-0.5
		c0.4,0.2,1.1,0.1,1.5,0.1c0.3,0,0.4-0.1,0.4-0.1S31.3,36.2,30.6,36.5z"/>
	<path class="st11" d="M33.3,33.7l-0.5,2.7l-1.6,0.1l-0.8,0.1c0.2-0.8-1.5-1.8-1.5-1.8c0.9-0.5,1.4-0.3,1.6-0.3c0,0,0,0,0,0
		c0.2,0,0.3-0.1,0.3-0.4c0-0.2,0-0.3,0-0.5c0,0,0.3,0.1,0.2-0.4c-0.1-0.5,0-1.1,0-1.1l0.1-0.1l0.2-0.6l0.7,0.8L33.3,33.7z"/>
	<path class="st5" d="M33.3,33.7l-0.5,2.7l-1.6,0.1l-0.8,0.1c0.2-0.8-1.5-1.8-1.5-1.8c0.9-0.5,1.4-0.3,1.6-0.3l0,0
		c0.2,0,0.3-0.1,0.3-0.4c0-0.2,0-0.3,0-0.5c0,0,0.3,0.1,0.2-0.4c-0.1-0.5,0-1.1,0-1.1l0.1-0.1l0.2-0.6l0.7,0.8L33.3,33.7z"/>
	<path class="st8" d="M31.5,36.4c-0.1,0.1-0.2,0.1-0.2,0.2l-0.8,0.1c0.2-0.8-1.5-1.8-1.5-1.8c0.9-0.5,1.4-0.3,1.6-0.3c0,0,0,0,0,0
		c0.2,0.3,0.5,0.6,0.7,0.7C31.5,35.4,32.1,35.9,31.5,36.4z"/>
	<path class="st8" d="M30.6,36.5c-0.1,0.1-0.3,0.1-0.4,0.1c0.1-0.7-1.2-1.5-1.5-1.7c0.3,0,0.4-0.1,0.4-0.1S31.3,36.2,30.6,36.5z"/>
	<path class="st11" d="M31.4,36.4c-0.1,0.1-0.2,0.1-0.2,0.2l-0.8,0.1c0.2-0.8-1.5-1.8-1.5-1.8c0.9-0.5,1.4-0.3,1.6-0.3c0,0,0,0,0,0
		c0.2,0.3,0.5,0.6,0.7,0.7C31.4,35.4,32,35.9,31.4,36.4z"/>
	<path class="st5" d="M31.4,36.4c-0.1,0.1-0.2,0.1-0.2,0.2l-0.8,0.1c0.2-0.8-1.5-1.8-1.5-1.8c0.9-0.5,1.4-0.3,1.6-0.3c0,0,0,0,0,0
		c0.2,0.3,0.5,0.6,0.7,0.7C31.4,35.4,32,35.9,31.4,36.4z"/>
	<path class="st10" d="M34.8,25c0,0-3.1,4.4-2.9,3.6c0.2-0.5-0.3-2-0.6-3c-0.2-0.5-0.3-0.9-0.3-0.9s1.8-1.5,1.8-1.2
		c0,0.1,0.1,0.2,0.3,0.4C33.6,24.4,34.8,25,34.8,25z"/>
	<path class="st8" d="M33.1,23.9c-0.2,0.8-0.9,1.5-1.8,1.7c-0.2-0.5-0.3-0.9-0.3-0.9s1.8-1.5,1.8-1.2C32.7,23.6,32.9,23.7,33.1,23.9
		z"/>
	<path class="st10" d="M33.1,23.1c0,1.3-1.1,2.4-2.4,2.4c-1.3,0-2.4-1.1-2.4-2.4s1.1-2.4,2.4-2.4c0,0,0,0,0,0
		C32.1,20.8,33.1,21.8,33.1,23.1C33.1,23.1,33.1,23.1,33.1,23.1z"/>
	<path class="st8" d="M41.9,42.4c-0.1,0.1-0.2,0.1-0.3,0.2c-0.1,0-0.1,0.1-0.2,0.1c0,0-0.1,0.1-0.1,0.1c-0.4-0.1-0.7-0.2-1.1-0.4
		l0,0c-0.3-0.1-0.5-0.3-0.6-0.4c-0.4-0.5-1.8-1.7-4.6-2.1c-0.7-0.1-1.3-0.1-2-0.1c-0.1,0-0.2,0-0.3,0l0-0.3l0,0l0.5-0.2l0.5-0.2
		c0.3-0.1,0.7-0.1,1-0.1c0,0,0.1,0,0.1,0c0,0,0.1,0,0.1,0h0h0c0.1,0,0.2,0,0.2,0c0,0,0.1,0,0.1,0h0l0.1,0c0,0,0.1,0,0.1,0l0.1,0
		c0.1,0,0.1,0,0.2,0c0.1,0,0.2,0,0.2,0l0.1,0c0.1,0,0.2,0.1,0.4,0.1l0.1,0l0.1,0l0.1,0c0.2,0.1,0.4,0.1,0.7,0.2l0.1,0l0.1,0
		c0,0,0,0,0,0c0.1,0,0.1,0.1,0.2,0.1c0.4,0.2,0.8,0.3,1.1,0.5l0.1,0.1l0.1,0c0,0,0.1,0,0.1,0.1l0.1,0.1l0.1,0l0.1,0l0.1,0
		c0.1,0.1,0.3,0.2,0.4,0.2c0,0,0.1,0,0.1,0.1l0.1,0c0.1,0,0.1,0.1,0.2,0.1c0,0,0.1,0,0.1,0.1c0,0,0.1,0.1,0.1,0.1c0,0,0.1,0,0.1,0.1
		l0,0c0,0,0.1,0,0.1,0.1l0.1,0l0.1,0.1c0,0,0,0,0,0l0,0l0.1,0.1c0,0,0,0,0,0l0.1,0.1l0.1,0.1c0,0,0.1,0.1,0.1,0.1c0,0,0,0,0.1,0l0,0
		l0,0l0,0l0,0c0,0,0,0,0,0c0,0,0.1,0.1,0.1,0.1C41.8,42.3,41.9,42.4,41.9,42.4L41.9,42.4z"/>
	<path class="st11" d="M41.6,39.9c0,0,0.2,1.5,0.4,2.3c-0.1,0-0.1,0.1-0.2,0.1l0,0c-0.1,0.1-0.2,0.1-0.3,0.2c-0.1,0-0.1,0.1-0.2,0.1
		c-0.3-0.1-0.5-0.1-0.8-0.2c-0.4-0.2-0.8-0.4-1-0.6c-0.4-0.5-1.8-1.6-4.4-2c-0.7-0.1-1.4-0.1-2.1-0.1c-0.1,0-0.2,0-0.4,0l0-0.1
		l-0.2-1l-0.2-0.9v0l0-0.1v0l0,0l0-0.2l-0.1-0.5l0-0.2c0,0,0,0,0-0.1c0,0,0,0,0,0s0,0,0,0c0,0,0,0,0,0s0,0,0,0c0,0,0,0,0,0l0,0
		c0,0,0,0,0,0c0,0,0,0,0,0c0,0,0,0,0,0c0,0,0-0.1,0-0.1c0,0,0,0,0-0.1c0-0.1,0-0.2,0-0.3c0-0.1,0-0.2,0-0.3c0,0,0,0,0-0.1
		c0,0,0,0,0,0l0,0c0,0,0,0,0,0c0,0,0-0.1,0-0.1c0,0,0,0,0,0c0,0,0,0,0-0.1c0,0,0-0.1,0-0.1c0,0,0,0,0,0c0,0,0,0,0,0s0,0,0,0
		c0,0,0-0.1,0-0.1l0,0c0,0,0,0,0-0.1c0-0.1-0.1-0.2-0.1-0.2l0,0c0,0,0,0,0,0c0,0,0,0,0,0c0,0,0,0,0,0c0,0,0,0,0,0c0,0,0,0,0-0.1
		c0,0,0,0,0,0c0,0,0,0,0,0c-0.2-0.5-0.5-1.8-0.5-1.8L31.1,32l0,0l0-0.1L31,31.6v0l0,0l0-1.1c0,0,0-1.7,0.5-2l0-0.2
		c0,0-0.4-0.1-0.5-0.3c0,0,0-0.1,0-0.1l0,0c0,0,0-0.1,0.1-0.1c0,0,0,0,0,0c0.2-0.2,0.3-0.4,0.3-0.6c0,0,0.1-0.1,0.2-0.3
		c0.3-0.6,1.1-1.7,1.4-1.8c0.3-0.1,0.5-0.3,0.8-0.5l0.1,0l0,0c0.2,0,0.9,0.2,1.2,0.2c0.1,0,0.2,0.1,0.4,0.1c0.6,0.3,1.2,0.9,1.5,1.5
		c0.2,0.5,0.5,1,0.6,1.1c0.1,0.1,0.2,0.2,0.2,0.3c0,0.1,0.1,0.1,0.1,0.2c0.1,0.2,0.2,0.4,0.2,0.4s1.1,0.7,0.9,1.4c0,0,0.2,0.8,0.5,1
		c0.2,0.2,0.8,2.1,0.8,2.1s0.2,0.3,0.2,0.6c0,0.3,0.2,0.8,0.2,0.8s0,0.2,0.1,0.4c0,0.1,0,0.1,0.1,0.2c0.1,0.2,0.1,0.3,0.2,0.4
		c0.1,0.1,0.1,0.4,0.1,0.4s0.2,0.4,0.2,0.5c0,0,0,0.1,0,0.1c0,0.1,0,0.3,0,0.4c0,0,0,0.1,0,0.1c0,0.2,0,0.6,0.1,0.7c0,0,0,0.1,0,0.1
		c0.1,0.3,0,0.8,0.1,0.9C41.7,38.7,41.6,39.9,41.6,39.9z"/>
	<path class="st10" d="M34.4,36.8c0,0-0.1,0.2-0.2,0.6c-0.3,0.7-0.7,1.7-0.9,2.3c-0.3,0.8-1.4,1.3-1.4,1.3s-2.3,0.8-3.1,0.2
		c-0.8-0.6,1.5-1.9,1.9-1.9c0.4-0.1,0.8-0.4,1.1-0.6c0.1-0.1,0.2-0.4,0.1-0.7c0-0.2-0.1-0.5-0.1-0.7L34.4,36.8z"/>
	<path class="st8" d="M37.5,29c0,0,0.9-0.4,1.2,0.2C39.1,29.8,37.5,29,37.5,29z"/>
	<path class="st8" d="M40.7,36.7c0,0-6,0-4.8,0.8s1.3,1.1,2.6,0.8C39.7,37.9,40.7,36.7,40.7,36.7z"/>
	<path class="st8" d="M33.1,23.1c0,0.4-0.1,0.8-0.3,1.2c-0.1,0-0.2-0.1-0.2-0.2c-0.1-0.1-0.1-0.2-0.2-0.3c-0.1-0.2-0.2-0.4-0.4-0.6
		c-0.1-0.1-0.3-0.3-0.4-0.2c-0.3,0-0.5,0.5-0.7,0.4c-0.1,0-0.2-0.5-0.2-0.6c-0.1-0.2-0.2-0.2-0.4-0.1c-0.4,0.2-0.8,0.3-1.2,0.3
		c-0.1,0-0.3-0.1-0.4-0.2c0-0.1-0.1-0.1-0.1-0.2c0,0,0,0-0.1,0c0.4-1.3,1.7-2,2.9-1.7C32.4,21.1,33.2,22.1,33.1,23.1z"/>
	<path class="st12" d="M30.9,23.3c0.3,0.1,0.5-0.3,0.7-0.4c0.2,0,0.3,0.1,0.4,0.2c0.2,0.2,0.3,0.4,0.4,0.6c0.1,0.1,0.1,0.2,0.2,0.3
		c0.1,0.1,0.2,0.1,0.3,0.2l0.4,0.2c0.2,0.1,0.5,0.2,0.6,0c0.1-0.1,0.1-0.4,0.1-0.6c-0.1-0.2-0.2-0.4-0.1-0.6c0-0.2,0.1-0.4,0.2-0.6
		c0.1-0.4-0.1-0.7-0.3-1c-0.2-0.3-0.5-0.5-0.7-0.7c-0.1-0.1-0.2-0.3-0.4-0.5c-0.2-0.2-0.4-0.3-0.6-0.4c-0.2-0.1-0.3-0.1-0.5-0.1
		c-0.2,0-0.4,0.1-0.6,0.2c-0.3,0.1-0.6,0.2-0.9,0.2c-0.4,0-0.8-0.1-1.1,0.1c-0.2,0.1-0.4,0.4-0.5,0.7L28,21.7
		c-0.1,0.2-0.2,0.4-0.4,0.6c-0.2,0.2-0.4,0.3-0.6,0.3c0.2,0.2,0.6,0.2,0.9,0.1c0.1-0.1,0.2-0.1,0.3-0.2s0.3-0.1,0.4,0
		c0,0,0.1,0.1,0.1,0.2c0.1,0.1,0.2,0.2,0.4,0.2c0.4,0.1,0.8-0.1,1.2-0.3c0.2-0.1,0.3-0.2,0.4,0.1C30.7,22.8,30.8,23.3,30.9,23.3z"/>
	<path class="st8" d="M34.4,36.8c0,0-0.1,0.2-0.2,0.6c-0.1,0.1-0.2,0.1-0.3,0.2c-0.3,0.2-0.6,0.3-0.6,0.3l-1.4,0.1
		c0-0.2-0.1-0.5-0.1-0.7L34.4,36.8z"/>
	<path class="st8" d="M36.6,30.2l-0.3,1.2c0,0-0.3,0.7-0.2,1.4c0.2,0.7-0.1,1.7-0.1,1.7l-0.5,1.3c0,0-0.6,1.4-0.8,1.4
		c-0.1,0-0.5,0.2-0.8,0.4c-0.3,0.2-0.6,0.3-0.6,0.3l-1.5,0.1c-0.5-1.3-0.2-1.6,0.1-1.6c0.1,0,0.1,0,0.2,0l0.3-2.1V33
		c0,0,0.1-1.2,0.3-1.6c0.1-0.3,0.2-0.5,0.3-0.8c0,0-0.2-0.4-0.2-0.6c0-0.2-0.1-0.4-0.1-0.5c0,0-0.2,0-0.3-1.9
		c-0.1-1.9,1.3-2.4,1.3-2.4c1.7-0.5,2.7,0.9,3.4,1.9S36.6,30.2,36.6,30.2z"/>
	<path class="st8" d="M36.4,30.1l-0.3,1.2c0,0-0.3,0.7-0.2,1.4c0.2,0.7-0.1,1.7-0.1,1.7l-0.5,1.3c0,0-0.6,1.4-0.8,1.4
		c-0.1,0-0.5,0.2-0.8,0.4c-0.3,0.2-0.6,0.3-0.6,0.3l-0.7,0l-0.1-0.9c0,0-0.1-1.2-0.2-1.7l0.2-1v-1.3c0,0,0.1-1.2,0.3-1.6
		c0.1-0.3,0.2-0.5,0.3-0.8c0,0-0.2-0.4-0.2-0.6c0-0.2-0.1-0.4-0.1-0.5c0,0-0.2,0-0.3-1.9s1.3-2.4,1.3-2.4c1.7-0.5,2.7,0.9,3.4,1.9
		C37.6,27.9,36.4,30.1,36.4,30.1z"/>
	<path class="st11" d="M36.5,30.1l-0.3,1.2c0,0-0.3,0.7-0.2,1.4c0.2,0.7-0.1,1.7-0.1,1.7l-0.5,1.3c0,0-0.6,1.4-0.8,1.4
		c-0.1,0-0.5,0.2-0.8,0.4c-0.3,0.2-0.6,0.3-0.6,0.3l-1.5,0.1c-0.5-1.3-0.2-1.6,0.1-1.6c0.1,0,0.1,0,0.2,0l0.3-2.1v-1.3
		c0,0,0.1-1.2,0.3-1.6c0.1-0.3,0.2-0.5,0.3-0.8c0,0-0.2-0.4-0.2-0.6c0-0.2-0.1-0.4-0.1-0.5c0,0-0.2,0-0.3-1.9s1.3-2.4,1.3-2.4
		c1.7-0.5,2.7,0.9,3.4,1.9C37.7,27.9,36.5,30.1,36.5,30.1z"/>
	<path class="st8" d="M33.8,37.4c-0.3,0.2-0.6,0.3-0.6,0.3l-1.5,0.1c-0.5-1.3-0.2-1.6,0.1-1.6c0.4,0.3,0.8,0.6,0.9,0.7
		C32.7,37.1,33.3,37.2,33.8,37.4z"/>
	<path class="st11" d="M33.8,37.4c-0.3,0.2-0.6,0.3-0.6,0.3l-1.5,0.1c-0.5-1.3-0.2-1.6,0.1-1.6c0.4,0.3,0.8,0.6,0.9,0.7
		C32.7,37.1,33.3,37.3,33.8,37.4z"/>
	<g class="st13">
		<path d="M34,24.1c-0.2,0.2-0.4,0.1-0.6,0L33,24c-0.1,0-0.2-0.1-0.3-0.2c-0.1-0.1-0.1-0.2-0.2-0.3c-0.1-0.2-0.2-0.4-0.4-0.6
			c-0.1-0.1-0.3-0.3-0.4-0.2c-0.3,0-0.5,0.5-0.7,0.4c-0.1,0-0.2-0.5-0.2-0.6c-0.1-0.2-0.2-0.2-0.4-0.1c-0.4,0.2-0.8,0.3-1.2,0.3
			c-0.1,0-0.3-0.1-0.4-0.2c0-0.1-0.1-0.1-0.1-0.2c-0.1-0.1-0.2-0.1-0.4,0c-0.1,0.1-0.2,0.1-0.3,0.2c-0.2,0.1-0.3,0.1-0.5,0.1
			c-0.1,0.1-0.3,0.2-0.4,0.2c0.2,0.2,0.6,0.2,0.9,0.1c0.1-0.1,0.2-0.1,0.3-0.2c0.1-0.1,0.3-0.1,0.4,0c0,0,0.1,0.1,0.1,0.2
			c0.1,0.1,0.2,0.2,0.4,0.2c0.4,0.1,0.8-0.1,1.2-0.3c0.2-0.1,0.3-0.2,0.4,0.1c0,0.1,0.2,0.6,0.2,0.6c0.3,0.1,0.5-0.3,0.7-0.4
			c0.2,0,0.3,0.1,0.4,0.2c0.2,0.2,0.3,0.4,0.4,0.6c0.1,0.1,0.1,0.2,0.2,0.3c0.1,0.1,0.2,0.1,0.3,0.2l0.4,0.2c0.2,0.1,0.5,0.2,0.6,0
			C34,24.4,34,24.2,34,24.1C34,24.1,34,24.1,34,24.1z"/>
		<path d="M34,22.6c0,0.1-0.1,0.2-0.1,0.3C33.9,22.8,33.9,22.8,34,22.6C34,22.7,34,22.6,34,22.6z"/>
	</g>
	<path class="st8" d="M24.6,43.2c0,0-0.3,0.8-0.9,0.8L24.6,43.2z"/>
	
		<linearGradient id="SVGID_2_" gradientUnits="userSpaceOnUse" x1="34.659" y1="-81.2017" x2="34.659" y2="-54.9696" gradientTransform="matrix(1 0 0 -1 -19.44 -36.5029)">
		<stop  offset="0" style="stop-color:#808080;stop-opacity:0.25"/>
		<stop  offset="0.54" style="stop-color:#808080;stop-opacity:0.12"/>
		<stop  offset="1" style="stop-color:#808080;stop-opacity:0.1"/>
	</linearGradient>
	<path class="st14" d="M24.9,41.5c-0.1-0.2-0.2-0.5-0.4-0.7l-0.1-0.1h0c0.1,0,0.1,0,0.1,0l0,0c0.4-0.3-0.4-2.1-0.8-2.1
		c-0.3,0-0.8,0-1.2-0.1l-0.1,0c0,0,0,0,0-0.1c0,0-0.5-0.1-0.7-0.4c-0.2-0.3-0.5-0.6-0.5-0.6s-0.2-0.1-0.3-0.2c0,0-0.1-0.1-0.1-0.1
		c0-0.2-0.6-0.6-0.7-0.8l0,0c0,0-0.1-0.3-0.2-0.3c-0.1,0-0.2-0.1-0.2-0.3c-0.1-0.1-0.1-0.3-0.2-0.4c0,0-0.2-0.3-0.4-0.5
		c-0.1-0.1-0.1-0.1-0.1-0.2c0-0.1-0.1-0.1-0.1-0.2c0-0.2-0.3-0.3-0.3-0.3s-0.2-0.5-0.2-0.6S18,33.3,18,33.3l-0.6-0.6
		c0,0,0.2-0.4-0.4-0.8c-0.5-0.3-0.6-1.3-0.6-1.3l-0.5-1l0-0.1c0,0,0.1-0.1,0.1-0.1c0-0.1,0.1-0.2,0-0.3c0-0.1-0.1-0.2-0.2-0.4
		c0,0,0,0,0,0c0,0,0-0.1,0-0.1c0,0,0,0,0.1,0c0,0,0,0,0,0c0-0.1,0.1-0.1,0-0.3c0,0,0,0,0-0.1c-0.2-0.3-0.2-0.9-0.2-0.9l-0.4-1.1
		c0,0-0.1-0.7-0.4-1.1c-0.1-0.1-0.2-0.2-0.3-0.3c-0.1-0.1-0.2-0.2-0.3-0.2l0,0c0,0,0-0.1,0-0.1s0-0.1,0-0.1c0.1,0,0.2,0,0.4,0
		c0.1,0,0.2,0,0.3,0c0.4,0,0.7-0.2,1-0.4c0.6-0.4,1-1,1.2-1.6l0,0c0-0.2,0.1-0.4,0.1-0.6c0-0.2,0-0.4-0.1-0.5c0,0,0,0,0,0
		c0-0.1,0-0.1,0-0.2c0,0,0,0,0,0c0.1,0,0.3,0,0.4,0c0,0,0.1,0,0.1,0c0,0,0.1-0.1,0.1-0.1c0-0.1,0-0.1,0.1-0.2c0,0,0,0,0,0l0,0
		c0-0.1,0-0.1,0-0.2c0,0,0-0.1,0-0.1c0,0,0,0,0-0.1c0,0,0-0.1,0-0.1c0,0,0,0,0,0c0,0,0,0,0-0.1c-0.1-0.3-0.5-0.4-0.6-0.7
		c0-0.1,0-0.3-0.1-0.4c-0.1,0-0.1-0.1-0.2-0.1c-0.2-0.1-0.4-0.3-0.7-0.4c-0.1,0-0.1-0.1-0.2-0.1c-0.2-0.1-0.3-0.1-0.5,0
		c0,0-0.1,0-0.1,0.1c-0.1,0.1-0.3,0.1-0.4,0.1c-0.1,0-0.2,0-0.3,0c-0.2,0-0.5,0-0.7,0.1c-0.1,0.1-0.1,0.2-0.2,0.2
		c-0.1,0.1-0.3,0.1-0.5,0c-0.2,0-0.4,0-0.4,0.1c0,0,0,0.1,0,0.1c0,0.1-0.2,0.2-0.3,0.3s-0.3,0-0.4,0.1c-0.2,0-0.4,0.1-0.6,0.2
		c-0.1,0.1-0.1,0.1-0.2,0.2c0,0,0,0,0,0c0,0,0,0.1,0,0.1c0,0,0,0,0,0.1c0,0,0,0,0,0c0,0,0,0.1,0,0.1c0,0,0,0,0,0c0,0.1,0,0.1,0,0.2
		c0,0,0,0,0,0c0,0.1-0.1,0.1-0.1,0.2c0,0-0.1,0.1-0.1,0.2l0,0l0,0c0,0,0,0.1,0,0.1c0,0,0,0.1,0,0.1c0,0,0,0,0,0c0,0,0.1,0.1,0.2,0.1
		c0.1,0.1,0.2,0.3,0.2,0.5c0,0.3,0,0.5,0,0.8c0,0,0,0,0,0c0,0.1-0.1,0.3-0.1,0.5l0,0v0c0,0,0,0,0,0c0,0,0,0,0,0.1
		c0,0.1,0,0.3,0.1,0.4l0,0c0,0,0,0,0.1,0.1c0,0,0.1,0,0.2,0c0,0.1-0.1,0.1-0.1,0.2l0,0c0,0,0,0,0,0c0,0.1-0.1,0.2-0.1,0.2
		c-0.2,0-0.5,0-0.7,0.1c0,0-0.1,0.8-0.4,0.9S8.8,26,8.8,26l-1.8,1.8l0,0c0,0,0,0.1-0.1,0.2c-0.3,0.4-0.9,1.4-1.2,1.9
		c-0.1,0.2-0.2,0.5-0.2,0.9c-0.2,0.8-0.3,1.9-0.3,2.1l0,0c0,0.2-0.1,2.1,0,2.8c0,0.1,0,0.2,0,0.3c0,0.1,0,0.2,0,0.4
		c0,0.2,0,0.6,0,0.9c0,1-0.1,2.1-0.1,2.1s0.3,0.8,0.4,1.1c0,0,0.1,0.1,0.1,0.1C5.7,40.3,6,41,6,41s0.1,0,0.3,0l0.1,0
		c0,0,0,0.1,0,0.1s0,0.1,0,0.1c0,0,0,0.1,0,0.1C6.7,41.7,6.9,42,7,42.1c0.3,0.1,1.1,0.5,1.2,0.7s1.2,0.4,1.7,0.4h0.2h0v0.1
		c0,0,0,0,0,0c0,0.2,0.2,0.4,0.5,0.4l0.4,0h0l0,0.1l0,0l0,0.1l-0.1,0.8h0l1,0H12v0c0,0,0.1,0,0.1,0l0.1,0c0.9-0.3,1.8-0.5,2.7-0.6
		c0.3,0,0.6,0,0.9,0c0,0,0.1,0,0.1,0c1,0.1,1.9,0.4,2.9,0.7h0.1l0.3,0h0l0,0l1,0h0.1l0-0.8v0v-0.1l0.3,0c0.1,0,0.3-0.1,0.4-0.2l0,0
		c0.1-0.1,0.1-0.1,0.1-0.2c0,0,0-0.1,0-0.1v-0.1c0.1,0.1,0.2,0.4,0,0.6l0,0C21.1,44,21,44,20.9,44.1c-0.3,0.2-0.4,0.3-0.5,0.4l0,0
		c-0.1,0.1,0,0.1,0,0.1h2.8c0.7-0.3,1.3-0.7,2-0.9c0,0,0,0,0,0l0,0l0,0C25.4,43.3,25.5,42.2,24.9,41.5z M13.7,33.1L13.7,33.1
		l0.1-0.2c0,0,0,0,0,0c0.5,0.8,1,1.5,1,1.5l0.1,0.1c0,0-0.1,0-0.1,0c-0.2,0-0.4,0-0.4,0c-0.2,0-0.6-0.1-0.6-0.1l-0.2-0.1
		c0-0.1,0-0.2,0-0.3l0,0l0,0l0.3-0.7L13.7,33.1z M18.2,37.7c0.4,0.3,0.9,0.6,1.4,0.9l-0.2,0l-1.2,0c-0.5-0.1-1.1-0.3-1.3-0.3
		c-0.1,0-0.5-0.1-0.9-0.3c-0.3-0.1-0.7-0.2-1-0.3l-0.7-0.2c0,0,0,0,0-0.1c-0.1-0.1-0.1-0.2-0.2-0.4c0-0.1-0.1-0.2-0.1-0.3
		c0,0-0.4,0-0.5-0.2c0,0,0-0.1,0-0.1c0,0,0.1-0.1,0.1-0.1l0,0c0,0,0-0.1,0-0.1c0-0.1,0-0.2,0-0.2l0,0c0-0.1,0-0.1,0-0.2
		c0.2,0,0.4,0.1,0.5,0.2c0.2,0.1,0.6,0.1,0.9,0.1c0.2,0,0.4,0,0.6,0h0c0.1,0,0.1,0,0.1,0s0.1,0,0.3,0.1c0.1,0,0.3,0,0.5,0
		c0.1,0,0.1,0,0.2,0l0.1,0.1l0,0c0.3,0.3,0.6,0.6,1,0.9C17.9,37.5,18,37.6,18.2,37.7L18.2,37.7z"/>
	<polygon class="st15" points="17.6,38.8 21.9,38.7 23.4,39.6 23.6,41.5 19.7,40.4 	"/>
	<polygon class="st5" points="17.6,38.8 21.9,38.7 23.4,39.6 23.6,41.5 19.7,40.4 	"/>
	<path class="st16" d="M15.1,35.8c0,0,0.4,0.5,0.4,0.5s1.5,0.3,1.9-0.1c0.4-0.3-0.7-1.4-0.7-1.4l-1,0.1L15,35.3L15.1,35.8z"/>
	<path class="st17" d="M12.9,34.3l0.7,0.3c0,0,0.5,0.1,0.6,0.1c0.2,0,0.9-0.1,0.9-0.1l0.6,0.2c0,0-0.6,1.1-0.2,1.5
		c0,0-1.1,0.1-1.6-0.1S13,36,13,36L12.9,34.3z"/>
	<path class="st5" d="M13,34.3l0.7,0.3c0,0,0.5,0.1,0.6,0.1c0.2,0,0.9-0.1,0.9-0.1l0.6,0.3c0,0-0.6,1.1-0.2,1.5c0,0-1.1,0.1-1.6-0.1
		c-0.4-0.2-1-0.3-1-0.3L13,34.3z"/>
	<path class="st16" d="M14.6,26.4c0,0-4.8-1.1-4-1.2c0.6-0.1,1.1-1.3,1.3-2.2c0.2-0.5,0.3-0.9,0.3-0.9s2.8,1.3,2.1,1.7
		c-0.2,0.2-0.3,0.6-0.2,1.1C14.3,25.6,14.6,26.4,14.6,26.4z"/>
	<path class="st6" d="M19.3,43.6L19.3,43.6L19.3,43.6l0,0.3l0,0.1l0,0.7v0v0v0l0,0h-0.2h0l0,0h-0.1v0l0,0v-0.1l-0.1,0
		c-0.9-0.3-1.9-0.6-2.9-0.7c0,0-0.1,0-0.1,0c-0.3,0-0.6,0-0.9,0c-0.9,0.1-1.8,0.3-2.7,0.6l-0.1,0c0,0-0.1,0-0.1,0l0-0.7v-0.1v-0.1
		h0.3h0l2.6,0l1,0L19.3,43.6z"/>
	<path class="st8" d="M12.3,43.4l0,0.2l0,0l0,0.1l0,0.1l0,0l-0.1,0.7l-0.1,0c0,0-0.1,0-0.1,0v0h-0.1l-0.2,0.1h-0.8l0-0.1l0.1-0.8
		l0,0l0-0.1l0-0.2L12.3,43.4L12.3,43.4z"/>
	<path class="st6" d="M12.3,43.4L12.3,43.4l0,0.2l0,0.1l0,0.1l-0.1,0.7c0,0-0.1,0-0.1,0v0h-0.1l-0.2,0.1l0,0l0,0l-0.8,0l0.1-0.8
		l0-0.1l0-0.1l0,0l0-0.1L12.3,43.4z"/>
	<polygon class="st8" points="20.3,43.7 20.3,43.9 20.3,44 20.3,44 20.2,44.7 20.2,44.7 19.2,44.8 19,44.8 18.9,44.8 18.9,44.8 
		18.9,44.7 18.9,44.7 18.9,44 18.9,44 18.9,43.9 18.8,43.6 18.9,43.7 19.2,43.7 19.3,43.7 	"/>
	<polygon class="st6" points="20.3,43.7 20.3,43.9 20.3,44 20.3,44.7 20.3,44.8 19.2,44.8 19.1,44.8 19.1,44.8 18.9,44.8 18.9,44.8 
		18.9,44.7 18.9,44.7 18.9,44 18.9,43.9 18.9,43.7 18.9,43.6 19.3,43.7 	"/>
	<path class="st9" d="M12.3,43.4L12.3,43.4l0,0.2l0,0.1l0,0.1l-0.1,0.7c0,0-0.1,0-0.1,0v0h-0.1l-0.2,0.1l0,0l0,0l-0.8,0l0.1-0.8
		l0-0.1l0-0.1l0,0l0-0.1L12.3,43.4z"/>
	<polygon class="st9" points="20.3,43.7 20.3,43.9 20.3,44 20.3,44.7 20.3,44.8 19.2,44.8 19.1,44.8 19.1,44.8 18.9,44.8 18.9,44.8 
		18.9,44.7 18.9,44.7 18.9,44 18.9,43.9 18.9,43.7 18.9,43.6 19.3,43.7 	"/>
	<path class="st8" d="M14.4,23.8c-0.2,0.2-0.3,0.6-0.2,1.1c-1-0.1-1.9-0.9-2.2-1.9c0.2-0.5,0.3-0.9,0.3-0.9S15,23.3,14.4,23.8z"/>
	<path class="st16" d="M17.2,22.1c0,1.5-1.2,2.6-2.6,2.6c-1.5,0-2.6-1.2-2.6-2.6s1.2-2.6,2.6-2.6c1.2,0,2.2,0.8,2.5,1.9
		C17.1,21.6,17.2,21.8,17.2,22.1z"/>
	<path class="st8" d="M17,21.3c-0.2-0.1-0.4-0.1-0.6-0.1c-0.1,0-0.1,0-0.1,0c-0.1,0.1-0.1,0.1-0.1,0.2c0,0.2-0.1,0.3-0.2,0.4
		c-0.2,0.1-0.4,0.1-0.5,0.2c-0.2,0.2-0.2,0.5-0.1,0.7c0,0.1,0,0.2,0,0.3c0,0.2-0.2,0.4-0.4,0.4c-0.1,0-0.2-0.1-0.3-0.2
		c-0.1-0.2-0.1-0.4-0.2-0.6c0-0.2-0.2-0.5-0.3-0.6c-0.1-0.1-0.2-0.1-0.3-0.2c-0.1,0-0.2,0-0.3,0.1c-0.1,0.1-0.1,0.3-0.1,0.4
		c0,0.3-0.2,0.6-0.4,0.7c-0.2,0.2-0.5,0.2-0.8,0.3c0,0,0,0-0.1,0c-0.7-1.3-0.3-2.9,1-3.6c1.3-0.7,2.9-0.3,3.6,1
		C16.9,21,17,21.1,17,21.3z"/>
	<path class="st18" d="M12.2,23.3c0.3-0.1,0.5-0.2,0.8-0.3c0.2-0.2,0.4-0.4,0.4-0.7c0-0.2,0-0.3,0.1-0.4c0.1-0.1,0.2-0.1,0.3-0.1
		c0.1,0,0.2,0.1,0.3,0.2c0.2,0.2,0.3,0.4,0.3,0.6c0,0.2,0,0.5,0.2,0.6c0.1,0.2,0.4,0.2,0.6,0.1c0.1-0.1,0.2-0.2,0.2-0.3
		c0-0.1,0-0.2,0-0.3c-0.1-0.2-0.1-0.5,0.1-0.7c0.1-0.1,0.4-0.1,0.5-0.2c0.1-0.1,0.2-0.2,0.2-0.4c0-0.1,0-0.2,0.1-0.2
		c0,0,0.1,0,0.1,0c0.4,0,0.7,0.2,1.1,0.2c0,0,0.1,0,0.1,0c0,0,0.1-0.1,0.1-0.1c0.1-0.2,0.2-0.5,0.1-0.7c-0.1-0.3-0.5-0.4-0.6-0.7
		c0-0.1,0-0.3-0.1-0.4c-0.1,0-0.1-0.1-0.2-0.1c-0.2-0.1-0.4-0.3-0.7-0.4c-0.2-0.1-0.5-0.3-0.7-0.1c0,0-0.1,0-0.1,0.1
		c-0.2,0.1-0.5,0-0.7,0s-0.5,0-0.7,0.1c-0.1,0.1-0.1,0.2-0.2,0.2c-0.1,0.1-0.3,0.1-0.5,0s-0.4,0-0.4,0.1c0,0,0,0.1,0,0.1
		c0,0.1-0.2,0.2-0.3,0.3c-0.1,0-0.3,0-0.4,0.1c-0.2,0-0.4,0.1-0.6,0.2c-0.1,0.1-0.2,0.2-0.2,0.4c0,0.1,0,0.1,0.1,0.1
		c0,0.2-0.1,0.3-0.2,0.4c-0.1,0.1-0.2,0.3-0.1,0.4c0,0,0.1,0.1,0.2,0.1c0.1,0.1,0.2,0.3,0.2,0.5c0,0.3,0,0.5,0,0.8
		c0,0.2-0.2,0.8,0.1,1C11.7,23.8,12.1,23.4,12.2,23.3z"/>
	<path class="st19" d="M14.1,34.9c0,0-0.6,0-0.6,0.3S14.1,34.9,14.1,34.9z"/>
	<path class="st15" d="M25.2,43.7L25.2,43.7C25.2,43.7,25.2,43.7,25.2,43.7c-0.7,0.3-1.3,0.7-2,1c-0.1,0-0.1,0.1-0.2,0.1
		c-0.4,0.2-0.9,0.3-1.3,0.4c-0.5,0.1-0.9,0-1.4,0c0-0.2,0.1-0.4,0.1-0.6l0,0c0.1-0.1,0.2-0.2,0.4-0.4c0.1-0.1,0.2-0.2,0.3-0.3l0,0
		c0.1-0.1,0.1-0.3,0-0.4c0,0,0-0.1,0-0.1c0,0-0.1-0.1-0.1-0.1h-8.2c0,0-1.9,0-2.7,0H9.9c-0.5,0-1.6-0.2-1.7-0.4
		c-0.1-0.2-0.9-0.6-1.2-0.7c-0.1,0-0.4-0.5-0.6-0.9c0-0.1-0.1-0.1-0.1-0.2c0,0,0-0.1,0-0.1v0c-0.1-0.1-0.1-0.2-0.2-0.3l0,0
		c0,0,0,0,0,0s0,0,0,0l0,0l0,0c0,0,0-0.1,0-0.1l7.4-2.8c0,0,0.2,0.1,0.6,0.1c0,0,0.1,0,0.1,0l0.8,0.2c0.4,0.1,0.7,0.2,1,0.3
		c0.4,0.1,0.8,0.2,0.9,0.2c0.2,0.1,0.9,0.2,1.3,0.3l0,0c0.3,0.1,0.4,0.1,0.4,0.1s0.6,0.1,1.4,0.3l0.1,0l0.2,0c0,0,0.1,0,0.1,0l0,0
		c0.1,0,0.3,0.1,0.4,0.1l0.3,0.1c0.3,0.1,0.6,0.1,0.9,0.2l0.2,0.1l0.1,0l0.1,0c0.3,0.1,0.6,0.1,0.8,0.2c0.1,0,0.1,0,0.2,0.1
		c0.4,0.2,0.7,0.6,1,0.9c0.2,0.2,0.3,0.5,0.4,0.7C25.4,42.3,25.3,43.3,25.2,43.7z"/>
	<path class="st8" d="M12.6,39.6c0,0-0.3,1.4-1.3,1.9S12.6,39.6,12.6,39.6z"/>
	<path class="st8" d="M14.7,40.4c0,0-1.1,0.6-0.9,1.1L14.7,40.4z"/>
	<path class="st8" d="M24.3,42.2c0,0-0.3,1.3-0.9,1.3L24.3,42.2z"/>
	<polygon class="st8" points="20.3,43.7 20.3,44 19.3,44 18.9,44 12.2,43.9 12,43.9 10.9,43.8 11,43.5 12.3,43.4 12.3,43.6 
		19.3,43.6 19.3,43.7 	"/>
	<path class="st7" d="M20.6,43.9l-10.1-0.2c-0.3,0-0.5-0.2-0.5-0.5l0-0.2h11v0.4C21.1,43.7,20.9,43.9,20.6,43.9
		C20.6,43.9,20.6,43.9,20.6,43.9z"/>
	<path class="st8" d="M13.4,38.3c0,0-0.4,0.3-0.6,0.5c-0.2,0.2-1.2,0.7-1.2,0.7c-1.3,1.3-4.2,1.7-5.3,1.7c0-0.1-0.1-0.1-0.1-0.2
		C6.1,40.7,6,40.5,6,40.5l7.4-2.8l0.6,0.1c0,0.1,0.1,0.1,0.1,0.2c0,0,0,0,0,0.1C14.2,38.2,13.4,38.3,13.4,38.3z"/>
	<path class="st17" d="M14.1,37.8c0.1,0.2-0.7,0.3-0.7,0.3s-0.4,0.3-0.6,0.5s-1.2,0.7-1.2,0.7c-1.3,1.3-4.3,1.7-5.3,1.7
		c-0.2,0-0.4,0-0.4,0s-0.3-0.7-0.4-0.7c-0.1,0-0.5-1.1-0.5-1.1s0.2-3,0.1-3.3c-0.1-0.3,0-2.8,0-3c0-0.2,0.3-2.2,0.6-2.9
		C6,29.4,7,28,7,28l1.8-1.8c0,0,1.2-1,1.5-1.1c0.3-0.1,0.4-0.8,0.4-0.8c0.8-0.3,1.7,0.4,1.7,0.4c0.8,0,0.7,0.1,0.7,0.1l0.5,0.1
		l0,0.1l0.6,6.5l-0.7,1.8l-0.3,0.9c0.1,0.3,0.1,0.6,0,0.9c-0.2,0.5,0.1,1,0.1,1s0.2,0.4-0.1,0.7s0.4,0.3,0.4,0.3
		S13.9,37.5,14.1,37.8C14.1,37.7,14.1,37.8,14.1,37.8z"/>
	<path class="st8" d="M10.6,35.9c0,0-0.3,0.6,0.3,0.7s2.1-0.1,2.3-0.1S10.6,35.9,10.6,35.9z"/>
	<path class="st8" d="M10.6,33.8c0.1,0.1,1.9,1.7,2.5,1.9L10.6,33.8z"/>
	<path class="st8" d="M11.8,32.7c0,0,0.9,1.6,1.2,1.9c0.3,0.3,0-0.9,0-0.9L11.8,32.7z"/>
	<path class="st8" d="M9.3,28.1c0,0,2.3,1.5,2.2,2.5C11.4,31.7,9.3,28.1,9.3,28.1z"/>
	<path class="st8" d="M6.6,32.9c0,0-0.6,4.6,4,4.5C10.7,37.4,6.9,36,6.6,32.9z"/>
	<path class="st16" d="M24.5,40.9c-0.7,0-2.5-0.7-2.5-0.7l0-0.1l0.3-1.5l0.4,0c0.4,0,0.9,0,1.2,0.1C24.3,38.8,25.1,40.9,24.5,40.9z"
		/>
	<path class="st8" d="M13.8,25l0.6,6.5l-0.7,1.8c-0.6-0.8-1.2-1.7-1.4-2c-0.3-0.5-1-2.7-1-2.7s-0.2-2,1.1-3.1
		C13,25,13.5,24.9,13.8,25z"/>
	<path class="st8" d="M22.3,39.7c-0.1,0.2-0.3,0.5-0.5,0.6c0,0-0.9-0.5-1.9-1.1C20.7,39.3,21.6,39.5,22.3,39.7z"/>
	<path class="st8" d="M22,40.2L22,40.2l0.2-1.5l0.4,0C22.8,39.6,22,40.2,22,40.2z"/>
	<path class="st17" d="M14.5,25.2c0,0-0.6-0.8-1.9,0.2c-1.3,1.1-1.1,3.1-1.1,3.1s0.7,2.3,1,2.7c0.3,0.5,2.3,3.3,2.3,3.3
		s2.1,2.3,3.4,3.3c1.3,0.9,3.8,2.3,3.8,2.3s0.8-0.6,0.6-1.6c0,0-0.5-0.1-0.7-0.4c-0.2-0.2-0.5-0.5-0.5-0.5s-0.4-0.2-0.4-0.3
		c0-0.2-0.7-0.8-0.7-0.8s-0.1-0.2-0.2-0.3c-0.2,0-0.4-0.7-0.4-0.7s-0.6-0.7-0.6-0.9c0-0.2-0.3-0.2-0.3-0.2s-0.2-0.5-0.2-0.6
		S18,33.5,18,33.5l-0.5-0.6c0,0,0.1-0.4-0.4-0.8c-0.5-0.3-0.6-1.3-0.6-1.3l-0.5-1.1c0.1-0.1,0.2-0.2,0.1-0.3c0-0.2-0.1-0.3-0.2-0.4
		c0,0,0.2-0.1,0-0.4c-0.2-0.3-0.2-0.9-0.2-0.9l-0.4-1.1C15.3,26.6,15.2,25.5,14.5,25.2z"/>
	<path class="st8" d="M15.9,32.6c0,0,1.7-0.4,1.2-0.1C16.6,32.9,15.9,32.6,15.9,32.6z"/>
	<path class="st8" d="M15.7,34.5c0,0,1.3-0.2,1,0.1C16.4,34.9,15.7,34.5,15.7,34.5z"/>
	<path class="st8" d="M13.1,26.7c0,0,1.8,0.5,2.2,1.4L13.1,26.7z"/>
	<g class="st13">
		<path d="M11.4,21.7c0-0.2,0-0.4-0.2-0.5c0,0-0.1-0.1-0.2-0.1l0,0c0,0.1,0,0.2,0,0.2c0,0,0.1,0.1,0.2,0.1
			C11.4,21.5,11.4,21.7,11.4,21.7C11.4,21.8,11.4,21.7,11.4,21.7z"/>
		<path d="M11.4,20.4C11.4,20.4,11.4,20.5,11.4,20.4C11.4,20.4,11.4,20.4,11.4,20.4c0-0.1,0-0.1,0-0.1
			C11.4,20.3,11.4,20.4,11.4,20.4z"/>
		<path d="M17.7,20.5c0,0.1-0.1,0.3-0.1,0.4c0,0,0,0.1-0.1,0.1c0,0-0.1,0-0.1,0c-0.4,0-0.7-0.2-1.1-0.2c-0.1,0-0.1,0-0.1,0
			c-0.1,0.1-0.1,0.1-0.1,0.2c0,0.2-0.1,0.3-0.2,0.4c-0.2,0.1-0.4,0.1-0.5,0.2c-0.1,0.1-0.2,0.3-0.1,0.5c0-0.1,0.1-0.2,0.1-0.3
			c0.1-0.1,0.4-0.1,0.5-0.2c0.1-0.1,0.2-0.2,0.2-0.4c0-0.1,0-0.2,0.1-0.2c0,0,0.1,0,0.1,0c0.4,0,0.7,0.2,1.1,0.2c0,0,0.1,0,0.1,0
			c0,0,0.1-0.1,0.1-0.1C17.7,21,17.8,20.7,17.7,20.5z"/>
		<path d="M15,23.1c-0.2,0-0.3,0-0.5-0.1c-0.1-0.2-0.1-0.4-0.2-0.6c0-0.2-0.2-0.5-0.3-0.6c-0.1-0.1-0.2-0.1-0.3-0.2
			c-0.1,0-0.2,0-0.3,0.1c-0.1,0.1-0.1,0.3-0.1,0.4c0,0.3-0.2,0.6-0.4,0.7c-0.2,0.2-0.5,0.2-0.8,0.3c-0.2,0.1-0.6,0.4-0.7,0.4
			c-0.1,0-0.1-0.1-0.2-0.2c0,0.2,0,0.4,0.2,0.4c0.2,0.1,0.6-0.3,0.7-0.4c0.3-0.1,0.5-0.2,0.8-0.3c0.2-0.2,0.4-0.4,0.4-0.7
			c0-0.2,0-0.3,0.1-0.4c0.1-0.1,0.2-0.1,0.3-0.1c0.1,0,0.2,0.1,0.3,0.2c0.2,0.2,0.3,0.4,0.3,0.6c0,0.2,0,0.5,0.2,0.6
			c0.1,0.2,0.4,0.2,0.6,0.1c0.1-0.1,0.2-0.2,0.2-0.3c0-0.1,0-0.1,0-0.2C15.3,22.9,15.2,23,15,23.1z"/>
	</g>
	<path class="st20" d="M3.8,32.9c0,0,0,0.1-0.1,0.1c0,0,0,0,0,0c0,0,0,0,0,0c0,0-0.1,0-0.1,0c0,0,0,0,0,0c0-0.1,0-0.3-0.1-0.2
		c-0.1,0.1,0,0.2,0,0.3l0,0c-0.1,0.1-0.1,0.2-0.1,0.3c0,0.1-0.1,0.3-0.2,0.3l0,0c-0.1,0-0.1-0.1-0.2-0.1c0,0,0,0,0,0
		c-0.1-0.2-0.2-0.6-0.3-0.6l0,0c0.1-0.1,0.1-0.2,0-0.2c-0.1,0-0.1,0.1-0.1,0.2c0,0,0,0,0,0c0,0-0.1,0-0.1,0.1l0,0
		c-0.1-0.1-0.2-0.3-0.3-0.1c0,0.1,0.1,0.3,0.2,0.4l0,0c-0.1,0.3,0.2,0.5,0.4,0.6l0,0c-0.2,0.3-0.4,0.7-0.4,0.7L3,34.7
		c0,0,0.4-0.3,0.4-0.7h0c0.4-0.1,0.5-0.5,0.4-0.8l0,0c0.1,0,0.1-0.1,0.2-0.1C4.1,32.9,3.9,32.7,3.8,32.9z"/>
	<path class="st8" d="M3.8,32.9c0,0,0,0.1-0.1,0.1c0,0,0,0,0,0c0,0,0,0,0,0c0,0-0.1,0-0.1,0c0,0,0,0,0,0c0-0.1,0-0.3-0.1-0.2
		c-0.1,0.1,0,0.2,0,0.3l0,0c-0.1,0.1-0.1,0.2-0.1,0.3c0,0.1-0.1,0.3-0.2,0.3l0,0c-0.1,0-0.1-0.1-0.2-0.1c0,0,0,0,0,0
		c-0.1-0.2-0.2-0.6-0.3-0.6l0,0c0.1-0.1,0.1-0.2,0-0.2c-0.1,0-0.1,0.1-0.1,0.2c0,0,0,0,0,0c0,0-0.1,0-0.1,0.1l0,0
		c-0.1-0.1-0.2-0.3-0.3-0.1c0,0.1,0.1,0.3,0.2,0.4l0,0c-0.1,0.3,0.2,0.5,0.4,0.6l0,0c-0.2,0.3-0.4,0.7-0.4,0.7L3,34.7
		c0,0,0.4-0.3,0.4-0.7h0c0.4-0.1,0.5-0.5,0.4-0.8l0,0c0.1,0,0.1-0.1,0.2-0.1C4.1,32.9,3.9,32.7,3.8,32.9z"/>
	<path class="st20" d="M2.5,33.1l-0.1,0.2c0,0-0.1,0-0.1-0.1c-0.1-0.1-0.2-0.2-0.2-0.4C2.2,32.7,2.4,32.9,2.5,33.1
		C2.5,33,2.5,33.1,2.5,33.1z"/>
	<path class="st20" d="M2.7,32.9C2.7,33,2.6,33,2.7,32.9C2.6,33,2.6,33,2.7,32.9c-0.1-0.1-0.1-0.3,0-0.2C2.8,32.7,2.8,32.9,2.7,32.9
		z"/>
	<path class="st20" d="M3.6,33c0,0.1,0,0.1,0,0.1C3.6,33.1,3.5,33.1,3.6,33c-0.2,0-0.3-0.2-0.1-0.2C3.6,32.7,3.6,32.8,3.6,33z"/>
	<path class="st20" d="M4,33.1c0,0.1-0.1,0.1-0.2,0.1c0,0,0,0-0.1,0l-0.1-0.1c0,0,0-0.1,0-0.1c0,0,0-0.1,0.1-0.1
		C3.9,32.7,4.1,32.9,4,33.1z"/>
	<path class="st8" d="M2.5,33C2.5,33,2.5,33.1,2.5,33l0,0.3c0,0-0.1,0-0.1-0.1C2.4,33.1,2.4,33.1,2.5,33C2.5,33,2.5,33,2.5,33z"/>
	<path class="st8" d="M2.7,32.9C2.7,33,2.6,33,2.7,32.9C2.6,33,2.6,33,2.7,32.9C2.6,32.9,2.7,32.9,2.7,32.9z"/>
	<path class="st20" d="M3,33.8l-0.2,0.1c0,0-0.1,0-0.1-0.1c-0.2-0.1-0.6-0.4-0.3-0.7c0.3-0.3,0.5,0.3,0.5,0.6C3,33.7,3,33.8,3,33.8z
		"/>
	<path class="st8" d="M3.5,33C3.5,33,3.6,33,3.5,33C3.6,33,3.6,33.1,3.5,33C3.6,33.1,3.5,33.1,3.5,33z"/>
	<path class="st8" d="M3.8,33.2C3.8,33.2,3.8,33.2,3.8,33.2l-0.1-0.1c0,0,0-0.1,0-0.1C3.8,33,3.8,33.1,3.8,33.2z"/>
	<path class="st20" d="M3.4,34L3.4,34c-0.6,0.1-0.2-0.2-0.2-0.2s0,0,0.1-0.1c0.1-0.1,0.2-0.2,0.2-0.3c0-0.2,0-0.4,0.3-0.3
		C3.9,33.1,4,33.9,3.4,34z"/>
	<rect x="2.3" y="35.5" class="st21" width="1.1" height="0.3"/>
	<rect x="2.1" y="34.5" class="st21" width="1.5" height="1"/>
	<rect x="2.3" y="35.5" class="st8" width="1.1" height="0.3"/>
	<rect x="2.1" y="34.5" class="st8" width="1.5" height="1"/>
	<rect x="2.3" y="35.5" class="st21" width="1.1" height="0.3"/>
	<path class="st8" d="M3,33.6c0,0.1,0,0.1,0,0.1l-0.2,0.1c0,0-0.1,0-0.1-0.1C2.8,33.7,2.9,33.7,3,33.6z"/>
	<path class="st8" d="M3.4,34L3.4,34c-0.6,0.1-0.2-0.2-0.2-0.2s0,0,0.1-0.1C3.3,33.8,3.4,33.9,3.4,34z"/>
	<path class="st20" d="M2.4,34.5c0,0,0.3-1.2,0.8-0.8C3.7,34.1,3,34.7,3,34.7L2.4,34.5z"/>
	<circle class="st8" cx="2.6" cy="33.2" r="0"/>
	<circle class="st8" cx="2.6" cy="33.4" r="0"/>
	<circle class="st8" cx="3.7" cy="33.3" r="0"/>
	<circle class="st8" cx="2.8" cy="34.2" r="0"/>
	<circle class="st8" cx="3.6" cy="33.6" r="0"/>
	<circle class="st8" cx="3.2" cy="33.9" r="0"/>
	<circle class="st8" cx="2.7" cy="33.3" r="0"/>
	<circle class="st8" cx="3.6" cy="33.4" r="0"/>
	<circle class="st8" cx="3.5" cy="33.7" r="0"/>
	<circle class="st8" cx="3.1" cy="34.1" r="0"/>
	<circle class="st8" cx="3" cy="34" r="0"/>
	<circle class="st8" cx="2.8" cy="33.5" r="0"/>
	<rect x="2.3" y="35.5" class="st8" width="1.1" height="0.1"/>
	<rect x="2.2" y="34.5" class="st21" width="1.5" height="1"/>
	<circle class="st8" cx="3.1" cy="34.3" r="0"/>
	<circle class="st8" cx="2.9" cy="34.4" r="0"/>
	<path class="st20" d="M46.8,29c0,0,0.4-1.1,1.3-0.7c0,0-0.5,1-1.3,0.9L46.8,29z"/>
	<path class="st20" d="M46.6,27.9c0,0,0.4-1.1,1.4-0.6c0,0-0.6,1-1.3,0.8L46.6,27.9z"/>
	<path class="st20" d="M46.6,26.9c0,0,0.6-1.1,1.3-0.9c0,0-0.6,1.2-1.3,1.2L46.6,26.9z"/>
	<path class="st20" d="M46.6,25.9c0,0,0.6-1.3,1.3-1.1c0,0-0.4,1-1.3,1.3L46.6,25.9z"/>
	<path class="st20" d="M46.7,24.7c0,0,0.6-1.1,1.2-1c0,0-0.4,1.1-1.2,1.3L46.7,24.7z"/>
	<path class="st20" d="M46.8,23.6c0,0,0.7-1.1,1.1-1c0,0-0.4,1.1-1.1,1.2L46.8,23.6z"/>
	<path class="st20" d="M46.9,22.6c0,0,0.5-1.2,0.9-1.2c0,0-0.2,1-0.9,1.3L46.9,22.6z"/>
	<path class="st20" d="M46.9,21.3c0,0,0.5-1,0.8-1c0,0-0.2,1.2-0.8,1.3L46.9,21.3z"/>
	<path class="st20" d="M46.9,20.4l0.2-1.8c0,0,0.4,1.4-0.2,2.1L46.9,20.4z"/>
	<path class="st20" d="M46.7,18.6c0,0-0.3-1.4-0.4-1.4c0,0,0.8,1,0.5,2L46.7,18.6z"/>
	<path class="st20" d="M46.7,29.8c-0.2,0.2-0.5,0.3-0.7,0.5c0,0-0.1,0.1-0.1,0.1c-0.1,0-0.3-0.1-0.4-0.1
		C45.9,29.7,46.4,29.7,46.7,29.8z"/>
	<path class="st20" d="M46.8,29c0,0-0.7-0.9-1.5-0.2c0,0,0.8,0.8,1.5,0.4L46.8,29z"/>
	<path class="st20" d="M46.7,27.9c0,0-0.7-0.9-1.5-0.2c0,0,0.8,0.8,1.5,0.4L46.7,27.9z"/>
	<path class="st20" d="M46.7,26.9c0,0-0.5-1.1-1.3-1c0,0,0.5,1.2,1.2,1.2L46.7,26.9z"/>
	<path class="st20" d="M46.6,25.9c0,0-0.5-1.4-1.1-1.3c0,0,0.3,1.1,1.1,1.5L46.6,25.9z"/>
	<path class="st20" d="M46.8,24.7c0,0-0.5-1.1-1.2-1.1c0,0,0.4,1.1,1.2,1.4L46.8,24.7z"/>
	<path class="st20" d="M46.9,23.6c0,0-0.3-1.2-0.8-1.3c0,0,0.1,1.2,0.7,1.5L46.9,23.6z"/>
	<path class="st20" d="M46.9,22.6c0,0-0.4-1.2-0.8-1.3C46.1,21.3,46.2,22.3,46.9,22.6L46.9,22.6z"/>
	<path class="st20" d="M47,21.4c0,0-0.3-1-0.6-1.2c0,0,0,1.2,0.5,1.4L47,21.4z"/>
	<path class="st20" d="M46.9,20.4l-0.7-1.6c0,0,0,1.5,0.8,1.9L46.9,20.4z"/>
	<path class="st20" d="M46.5,18.7c0,0-1-0.9-1-1.1c0,0,0.4,1.2,1.4,1.5L46.5,18.7z"/>
	<path class="st20" d="M46.5,18.3c0,0-1.1-1.4-1.4-1.5C45,16.8,46.1,17.1,46.5,18.3L46.5,18.3z"/>
	<path class="st22" d="M47,21.6L47,21.6c0-1.9-0.2-3.1-0.6-3.3l0,0C46.8,18.4,47,19.6,47,21.6z"/>
	<path class="st22" d="M46.6,26.2L46.6,26.2c-0.1-0.2,0-0.4,0-0.5c0.2-1.6,0.3-3,0.3-4.1l0,0c0,1.1-0.1,2.6-0.3,4.2
		C46.7,25.8,46.7,26,46.6,26.2z"/>
	<path class="st22" d="M46.8,29.2c0,0.2,0.1,0.3,0.1,0.5l-0.1,0.1C46.8,29.6,46.8,29.4,46.8,29.2c-0.1,0-0.1-0.1-0.1-0.2
		c0-0.3-0.1-0.6-0.1-0.8c0-0.1,0-0.1,0-0.2c0-0.1,0-0.1,0-0.2v0c0-0.2,0-0.4,0-0.6c0-0.2,0-0.3,0-0.5c0-0.2,0-0.3,0-0.5
		c0,0,0,0,0-0.1c0,0,0,0,0-0.1c0,0,0,0,0,0l0,0l0,0l0,0c0,0,0,0,0,0v0c0,0.2,0,0.5,0,0.7c0,0,0,0,0,0c0,0.1,0,0.2,0,0.3c0,0,0,0,0,0
		c0,0.2,0,0.4,0,0.6c0,0,0,0.1,0,0.1c0,0,0,0,0,0c0,0,0,0.1,0,0.1l0,0.1c0,0,0,0,0,0c0,0.3,0.1,0.6,0.1,0.9
		C46.8,29,46.8,29.1,46.8,29.2z"/>
	<path class="st20" d="M51.4,26.9l-0.1,0.1c-0.3,0.2-0.6,0.4-0.9,0.6c0,0,0,0.1,0,0.1c0,0,0,0,0,0l0-0.1l0-0.1l0,0l0,0v0
		c0,0,0,0,0-0.1C50.5,27.2,50.9,26.8,51.4,26.9z"/>
	<path class="st20" d="M50.4,26.3c0,0,0.6-1,1.5-0.3c0,0-0.8,0.9-1.5,0.5L50.4,26.3z"/>
	<path class="st20" d="M50.6,25.3c0,0,0.8-1,1.5-0.6c0,0-0.8,1-1.5,0.9L50.6,25.3z"/>
	<path class="st20" d="M50.8,24.4c0,0,0.9-1.2,1.5-0.8c0,0-0.6,0.9-1.5,1L50.8,24.4z"/>
	<path class="st20" d="M51.2,23.2c0,0,0.8-1,1.4-0.8c0,0-0.6,1-1.5,1.1L51.2,23.2z"/>
	<path class="st20" d="M51.5,22.2c0,0,0.9-0.9,1.3-0.8c0,0-0.6,1-1.3,1L51.5,22.2z"/>
	<path class="st20" d="M51.8,21.2c0,0,0.7-1.1,1.2-1c0,0-0.4,0.9-1.2,1.1L51.8,21.2z"/>
	<path class="st20" d="M52.1,19.9c0,0,0.6-0.8,1-0.9c0,0-0.5,1.1-1,1.1L52.1,19.9z"/>
	<path class="st20" d="M48.8,28.5c0.2-0.2,0.4-0.3,0.6-0.3C49.2,28.2,49,28.4,48.8,28.5L48.8,28.5z"/>
	<path class="st20" d="M50.4,27.5L50.4,27.5L50.4,27.5L50.4,27.5l0,0.2c0,0,0,0,0,0c0,0-0.1,0-0.1,0c-0.7,0.1-1.2-0.7-1.2-0.7
		c0.7-0.4,1.2,0.2,1.4,0.4C50.3,27.4,50.4,27.5,50.4,27.5z"/>
	<path class="st20" d="M50.5,26.3c0,0-0.5-1.1-1.4-0.5c0,0,0.7,1,1.4,0.7L50.5,26.3z"/>
	<path class="st20" d="M50.7,25.3c0,0-0.3-1.2-1.1-1.3c0,0,0.3,1.3,1,1.5L50.7,25.3z"/>
	<path class="st20" d="M50.9,24.4c0,0-0.2-1.4-0.8-1.5c0,0,0.1,1.1,0.8,1.7L50.9,24.4z"/>
	<path class="st20" d="M51.2,23.2c0,0-0.3-1.2-0.9-1.3c0,0,0.2,1.2,0.9,1.6L51.2,23.2z"/>
	<path class="st20" d="M51.6,22.2c0,0-0.1-1.3-0.5-1.4c0,0-0.2,1.2,0.4,1.6L51.6,22.2z"/>
	<path class="st20" d="M51.8,21.2c0,0-0.1-1.3-0.5-1.4C51.3,19.8,51.2,20.8,51.8,21.2L51.8,21.2z"/>
	<path class="st20" d="M52.2,20c0,0-0.1-1.1-0.4-1.3c0,0-0.2,1.2,0.2,1.5L52.2,20z"/>
	<path class="st20" d="M52.3,19l-0.4-1.7c0,0-0.3,1.5,0.4,2.1L52.3,19z"/>
	<path class="st20" d="M52.2,17.3c0,0-0.8-1.1-0.8-1.3c0,0,0.2,1.2,1.1,1.8L52.2,17.3z"/>
	<path class="st20" d="M52.3,16.9c0,0-0.8-1.6-1.1-1.7C51.2,15.2,52.2,15.6,52.3,16.9L52.3,16.9z"/>
	<path class="st22" d="M52.1,20.2L52.1,20.2c0.4-1.9,0.5-3.1,0.1-3.4l0,0C52.6,17.1,52.6,18.3,52.1,20.2z"/>
	<path class="st22" d="M50.8,24.6L50.8,24.6c0-0.2,0-0.4,0.1-0.5c0.5-1.5,0.9-2.9,1.2-4l0.1,0c-0.3,1.1-0.7,2.5-1.2,4
		C50.9,24.3,50.9,24.5,50.8,24.6z"/>
	<path class="st22" d="M50.8,24.5C50.8,24.5,50.8,24.6,50.8,24.5c-0.1,0.3-0.1,0.5-0.2,0.7c0,0,0,0,0,0c0,0.1,0,0.2-0.1,0.3
		c0,0,0,0,0,0c0,0.2-0.1,0.5-0.1,0.7c0,0,0,0,0,0l0,0c0,0.1,0,0.1,0,0.2v0c0,0.3-0.1,0.6-0.1,0.9c0,0,0,0.1,0,0.1c0,0,0,0.1,0,0.1
		c0,0,0,0,0,0l0-0.1l0,0l0,0.1c0,0,0,0,0,0v-0.1c0-0.1,0-0.2,0-0.2c0-0.3,0-0.6,0.1-0.8c0-0.1,0-0.2,0-0.3l0,0
		c0-0.2,0.1-0.4,0.1-0.7c0-0.1,0.1-0.3,0.1-0.4l0,0C50.7,24.9,50.7,24.8,50.8,24.5C50.8,24.6,50.8,24.6,50.8,24.5L50.8,24.5
		C50.8,24.5,50.8,24.5,50.8,24.5L50.8,24.5L50.8,24.5L50.8,24.5L50.8,24.5z"/>
</g>
</svg>
